<svg width="2846" height="547" viewBox="0 0 2846 547" fill="none" xmlns="http://www.w3.org/2000/svg">
<g opacity="0.3">
<path d="M1088.98 547.002C1078.82 547.002 1068.92 546.555 1059.41 545.664C1039.47 543.792 1021.05 539.951 1004.66 534.245C987.036 528.114 971.581 519.76 958.719 509.416C932.867 488.624 919.934 463.725 907.425 439.644C904.967 434.916 902.427 430.027 899.847 425.283C882.246 392.949 859.934 364.627 831.641 338.697C775.2 286.972 695.825 242.828 602.094 211.039C493.694 174.276 377.147 155.963 273.919 159.474C213.247 161.539 133.082 181.173 97.2543 214.704C75.9921 234.604 74.2776 256.688 92.2995 278.565L91.9417 278.657C82.4922 267.184 78.3751 255.682 79.7081 244.471C80.9311 234.186 86.7195 224.132 96.9161 214.589C113.133 199.411 139.877 185.959 174.258 175.685C206.027 166.193 241.41 160.357 273.896 159.252C327.918 157.416 385.374 161.491 444.666 171.366C498.413 180.319 551.449 193.602 602.298 210.847C696.085 242.654 775.506 286.822 831.979 338.578C860.288 364.526 882.612 392.863 900.225 425.215C902.808 429.958 905.349 434.85 907.803 439.578C920.3 463.641 933.225 488.523 959.041 509.284C984.008 529.365 1017.8 541.529 1059.48 545.439C1117.2 550.854 1187.29 539.528 1246.97 515.14C1332.97 479.995 1392.65 428.84 1450.38 379.371C1460.49 370.7 1470.95 361.734 1481.31 353.076C1508.2 330.594 1544.62 301.461 1587.9 275.507C1632.14 248.979 1677.09 229.488 1725.33 215.919C1754.86 207.613 1786.16 202.018 1818.35 199.288C1848.08 196.765 1879.55 196.609 1911.89 198.819C1967.35 202.612 2027.11 213.326 2094.57 231.571C2227.41 267.499 2360.1 311.108 2488.96 361.188C2611.44 408.788 2731.57 462.651 2846 521.275L2845.73 521.438C2608.53 399.912 2355.74 302.454 2094.4 231.769C1946.75 191.834 1829.53 186.859 1725.51 216.115C1619.69 245.877 1545.76 299.588 1481.64 353.197C1471.28 361.853 1460.82 370.819 1450.71 379.49C1392.97 428.977 1333.26 480.147 1247.2 515.316C1219.39 526.681 1188.11 535.546 1156.73 540.95C1140.16 543.806 1123.68 545.672 1107.75 546.5C1101.41 546.837 1095.14 547.002 1088.98 547.002Z" fill="#ECC94B"/>
<path d="M1098.92 534.672C1073 534.672 1048.99 531.909 1027.53 526.457C1003.6 520.377 982.951 510.955 966.152 498.456C964.666 497.348 963.191 496.204 961.768 495.05C936.192 474.349 922.684 449.773 909.625 426.005C906.982 421.201 904.253 416.233 901.485 411.412C884.996 382.706 865.142 357.406 840.781 334.07C837.781 331.197 834.674 328.318 831.54 325.513C774.269 274.233 694.25 230.648 600.133 199.471C490.951 163.335 374.074 145.78 271.03 150.039C210.798 152.555 131.003 172.511 95.0221 205.784C73.4767 225.708 71.0387 247.836 87.9635 269.777L87.6017 269.865C78.7303 258.365 75.0851 246.841 76.772 235.617C78.3214 225.308 84.3457 215.232 94.6839 205.67C111.066 190.518 137.731 177.05 171.789 166.723C203.268 157.178 238.498 151.175 270.995 149.819C324.951 147.589 382.469 151.274 441.95 160.771C495.827 169.374 549.114 182.331 600.329 199.281C694.501 230.477 774.564 274.087 831.87 325.396C835.004 328.203 838.115 331.085 841.115 333.96C865.492 357.312 885.358 382.625 901.854 411.346C904.627 416.167 907.356 421.135 909.998 425.941C923.054 449.693 936.549 474.252 962.09 494.925C963.51 496.074 964.984 497.218 966.467 498.323C1001.18 524.161 1048.88 534.672 1099.04 534.672C1099.32 534.672 1099.59 534.672 1099.86 534.672C1099.55 534.67 1099.23 534.672 1098.92 534.672ZM1109.62 534.518C1156.25 533.177 1204.37 523.146 1245.66 508.223C1334.7 475.901 1398.7 425.978 1460.6 377.701C1463.15 375.711 1465.69 373.725 1468.24 371.739C1473.84 367.381 1480.47 362.221 1487.24 357.019C1517.62 333.691 1554.39 306.549 1596.72 282.118C1641.77 256.122 1686.78 236.832 1734.31 223.142C1763.52 214.739 1794.38 208.82 1826.05 205.548C1855.39 202.517 1886.39 201.661 1918.19 203.001C1973.13 205.32 2032.21 214.107 2098.79 229.869C2163.7 245.212 2217.07 259.655 2266.72 275.322C2337.06 297.538 2404.06 323.136 2460.33 345.244C2591.15 396.791 2719.5 455.322 2841.83 519.214L2841.56 519.375C2719.25 455.492 2590.91 396.965 2460.11 345.424C2403.85 323.318 2336.86 297.726 2266.53 275.516C2216.89 259.854 2163.54 245.415 2098.64 230.076C1953.59 195.739 1837.88 193.597 1734.49 223.34C1627.18 254.242 1550.77 308.613 1487.56 357.151C1480.79 362.353 1474.16 367.511 1468.56 371.871C1466.01 373.855 1463.47 375.843 1460.92 377.833C1399 426.126 1334.98 476.066 1245.87 508.412C1223.77 516.399 1200.26 522.743 1175.98 527.267C1153.38 531.474 1131.11 533.906 1109.62 534.518Z" fill="#ECC94B"/>
<path d="M1109.88 522.625C1106.76 522.625 1103.66 522.587 1100.59 522.51C1074.69 521.87 1050.72 518.543 1029.35 512.62C1005.98 506.141 985.735 496.545 969.176 484.097C967.705 482.987 966.239 481.84 964.823 480.687C939.534 460.087 925.464 435.839 911.862 412.392C909.027 407.505 906.093 402.451 903.12 397.546C885.818 368.937 865.441 343.84 840.816 320.818C837.769 317.972 834.615 315.117 831.434 312.334C773.333 261.501 692.669 218.475 598.166 187.91C488.206 152.402 370.998 135.601 268.136 140.609C210.22 143.473 130.657 162.29 92.8277 196.834C70.9717 216.791 67.7904 238.979 83.626 260.997L83.2603 261.078C74.9631 249.543 71.7975 237.992 73.8423 226.748C75.722 216.406 81.9981 206.304 92.4935 196.719C109.049 181.603 135.627 168.13 169.359 157.755C200.543 148.164 235.611 141.998 268.101 140.391C321.993 137.769 379.575 141.063 439.24 150.181C493.251 158.436 546.786 171.065 598.363 187.72C692.92 218.306 773.628 261.355 831.764 312.218C834.945 315.002 838.103 317.857 841.15 320.708C865.787 343.743 886.176 368.856 903.486 397.48C906.459 402.387 909.392 407.441 912.228 412.328C925.826 435.762 939.884 459.992 965.141 480.568C966.557 481.721 968.016 482.866 969.487 483.971C1036.77 534.554 1156.02 529.123 1244.34 501.305C1337.11 471.831 1406.04 422.844 1472.71 375.471L1473.4 374.985C1479.85 370.393 1486.53 365.646 1493.18 360.96C1563.3 311.517 1640.38 260.706 1743.29 230.36C1772.18 221.859 1802.62 215.616 1833.76 211.805C1862.72 208.261 1893.26 206.705 1924.51 207.18C1979.01 208.008 2037.4 214.872 2103.01 228.163C2171.97 242.083 2223.86 254.877 2271.27 269.65C2338.82 290.741 2404.25 317.393 2461.98 340.908C2590.5 393.544 2716.9 452.84 2837.66 517.143L2837.39 517.302C2716.64 453.005 2590.26 393.716 2461.74 341.084C2404.02 317.573 2338.61 290.926 2271.08 269.842C2223.69 255.073 2171.82 242.283 2102.88 228.368C1960.65 199.557 1846.45 200.25 1743.47 230.552C1640.63 260.878 1563.58 311.667 1493.48 361.092C1486.84 365.779 1480.16 370.527 1473.7 375.117L1473.02 375.603C1439.8 399.21 1405.44 423.621 1368.35 445.426C1326.65 469.929 1286.16 488.268 1244.53 501.492C1200.98 515.206 1153.55 522.625 1109.88 522.625Z" fill="#ECC94B"/>
<path d="M2833.22 515.226C2714.04 450.515 2589.61 390.464 2463.39 336.743C2458.04 334.484 2452.68 332.214 2447.31 329.938C2392.63 306.776 2336.1 282.825 2275.64 264.166C2216.99 246.115 2157.55 235.078 2107.14 226.662C1967.98 203.288 1855.28 206.817 1752.46 237.763C1646.92 269.626 1565.13 322.526 1499.42 365.034C1495.47 367.586 1491.54 370.141 1487.59 372.699C1484.68 374.588 1481.77 376.477 1478.86 378.364C1441.44 402.592 1407.4 424.253 1369.8 444.019C1326.84 466.598 1285.43 483.135 1243.2 494.575C1203.63 505.298 1161.35 510.971 1122.03 510.973C1114.86 510.973 1107.8 510.786 1100.87 510.405C1075.54 509.016 1052.1 505.113 1031.18 498.804C1008.37 491.92 988.519 482.142 972.188 469.739C970.729 468.628 969.274 467.479 967.866 466.323C942.876 445.83 928.259 421.924 914.127 398.805C911.083 393.826 907.933 388.675 904.748 383.675C886.62 355.157 865.715 330.26 840.847 307.559C837.752 304.735 834.547 301.906 831.323 299.148C772.389 248.761 691.083 206.295 596.2 176.339C485.461 141.459 367.927 125.417 265.245 131.167C195.049 135.176 123.268 158.48 90.6841 187.835C68.4859 207.834 64.5496 230.092 79.292 252.202L78.9224 252.279C71.2032 240.702 68.5134 229.116 70.9279 217.843C73.1497 207.464 79.6852 197.329 90.3498 187.718C107.078 172.645 133.57 159.173 166.964 148.761C197.849 139.13 232.736 132.803 265.206 130.949C319.036 127.934 376.676 130.837 436.527 139.577C490.667 147.484 544.458 159.787 596.396 176.145C691.339 206.119 772.688 248.609 831.657 299.027C834.886 301.787 838.091 304.618 841.185 307.443C866.069 330.156 886.981 355.067 905.121 383.598C908.307 388.6 911.456 393.749 914.5 398.73C928.625 421.836 943.234 445.727 968.192 466.195C969.6 467.349 971.051 468.496 972.506 469.605C1042.75 522.953 1162.14 516.289 1243.03 494.375C1339.54 468.227 1413.4 420.409 1478.56 378.218C1481.47 376.329 1484.38 374.441 1487.3 372.554C1491.24 369.996 1495.18 367.44 1499.12 364.889C1536.63 340.626 1573.68 317.047 1614.4 295.32C1661.23 270.332 1706.33 251.443 1752.28 237.57C1780.87 228.965 1810.88 222.398 1841.48 218.055C1870.07 213.993 1900.14 211.739 1930.84 211.352C1984.99 210.669 2042.7 215.609 2107.25 226.451C2157.68 234.871 2217.15 245.913 2275.83 263.975C2336.32 282.64 2392.86 306.597 2447.55 329.764C2452.92 332.041 2458.28 334.31 2463.63 336.569C2589.87 390.295 2714.31 450.352 2833.5 515.069L2833.22 515.226Z" fill="#ECC94B"/>
<path d="M2829.05 513.152C2709.2 446.79 2586.73 385.975 2465.03 332.401C2457.74 329.196 2450.3 325.892 2443.09 322.698C2391.5 299.821 2338.15 276.166 2280.2 258.491C2222.33 240.904 2162.39 231.667 2111.39 224.953C1975.62 206.909 1864.42 213.271 1761.45 244.975C1663.24 275.325 1586.3 320.963 1511.88 365.098L1503.71 369.943C1497.26 373.771 1490.59 377.727 1484.01 381.608C1409.52 425.49 1334.96 466.617 1241.87 487.654C1219.29 492.759 1196.09 496.296 1172.93 498.174C1148.06 500.188 1123.9 500.217 1101.12 498.257C1076.38 496.129 1053.46 491.658 1033.01 484.968C1010.76 477.688 991.311 467.731 975.212 455.377C973.761 454.259 972.318 453.108 970.922 451.954C946.239 431.583 931.095 408.029 916.451 385.249C913.183 380.166 909.802 374.909 906.388 369.804C887.419 341.374 865.995 316.677 840.891 294.302C837.753 291.507 834.501 288.7 831.225 285.964C771.461 236.024 689.515 194.117 594.242 164.771C482.721 130.522 364.856 115.236 262.351 121.732C192.796 126.234 121.341 149.7 88.5926 178.8C66.0249 198.85 61.31 221.193 74.9553 243.416L74.5817 243.489C67.4405 231.861 65.2345 220.231 68.0225 208.925C70.5943 198.502 77.4012 188.327 88.2545 178.685C105.164 163.663 131.561 150.204 164.601 139.761C195.179 130.095 229.878 123.616 262.304 121.516C316.071 118.109 373.771 120.62 433.81 128.981C488.084 136.541 542.123 148.516 594.427 164.579C689.755 193.941 771.748 235.874 831.548 285.843C834.823 288.581 838.079 291.39 841.217 294.186C866.337 316.571 887.772 341.281 906.75 369.727C910.163 374.832 913.545 380.091 916.813 385.174C931.449 407.941 946.585 431.484 971.241 451.831C972.633 452.98 974.076 454.129 975.523 455.247C1044.08 507.853 1157.98 506.376 1241.72 487.451C1334.73 466.433 1409.26 425.32 1483.72 381.458C1490.3 377.577 1496.97 373.621 1503.42 369.793L1511.59 364.948C1548.12 343.285 1585.89 320.882 1626.91 300.041C1673.36 276.438 1717.31 258.363 1761.26 244.781C1789.56 236.068 1819.14 229.178 1849.18 224.304C1877.43 219.721 1907.03 216.767 1937.16 215.523C1991.07 213.297 2048.08 216.313 2111.47 224.738C2162.5 231.456 2222.48 240.695 2280.38 258.297C2338.36 275.978 2391.72 299.641 2443.33 322.524C2450.54 325.718 2457.98 329.02 2465.27 332.227C2586.98 385.806 2709.46 446.625 2829.32 512.993L2829.05 513.152Z" fill="#ECC94B"/>
<path d="M2824.88 511.078C2706.06 443.979 2585.54 382.403 2466.67 328.063C2457.73 323.979 2448.57 319.733 2439.72 315.627C2390.91 292.997 2340.43 269.597 2284.75 252.82C2227.16 235.535 2166.95 228.172 2115.64 223.25C1983.63 210.392 1873.94 219.589 1770.44 252.191C1680.11 280.762 1605.95 321.254 1534.23 360.411C1526.69 364.532 1518.88 368.792 1511.27 372.919C1502.34 377.767 1495.52 381.45 1489.15 384.857C1455.06 403.098 1414.46 424.101 1371.86 441.571C1326.71 460.082 1283.76 472.894 1240.54 480.739C1217.81 484.865 1194.72 487.467 1171.89 488.47C1147.38 489.549 1123.65 488.757 1101.36 486.113C1077.21 483.249 1054.83 478.21 1034.84 471.137C1013.16 463.468 994.111 453.333 978.232 441.018C976.801 439.902 975.365 438.749 973.973 437.591C949.616 417.356 933.966 394.165 918.826 371.737C915.314 366.536 911.685 361.158 908.024 355.934C888.201 327.583 866.254 303.088 840.926 281.046C837.741 278.275 834.442 275.494 831.119 272.78C770.525 223.287 687.934 181.939 592.276 153.203C479.979 119.584 361.785 105.057 259.461 112.295C201.238 116.504 125.195 135.894 86.5553 169.719C63.5825 189.831 58.0694 212.276 70.6175 234.626L70.2439 234.692C63.6808 223.005 61.9663 211.325 65.1437 199.975C68.0772 189.499 75.1672 179.28 86.225 169.601C103.315 154.64 129.615 141.203 162.289 130.738C192.56 121.043 227.05 114.417 259.414 112.077C313.118 108.278 370.88 110.398 431.1 118.38C485.504 125.591 539.794 137.241 592.46 153.009C688.174 181.761 770.812 223.133 831.441 272.655C834.764 275.369 838.067 278.154 841.252 280.927C866.593 302.98 888.551 327.488 908.386 355.852C912.05 361.078 915.68 366.456 919.192 371.658C934.319 394.074 949.966 417.252 974.296 437.465C975.688 438.621 977.119 439.772 978.551 440.886C1035.58 485.12 1133.48 499.939 1240.42 480.526C1337.26 462.946 1416.26 423.544 1488.88 384.694C1495.25 381.287 1502.07 377.604 1511 372.757C1518.6 368.629 1526.41 364.369 1533.96 360.248C1569.26 340.971 1605.77 321.038 1644.71 302.373C1688.75 281.264 1729.81 264.785 1770.25 251.995C1798.28 243.168 1827.43 235.954 1856.9 230.556C1884.82 225.442 1913.95 221.79 1943.48 219.697C1997.26 215.888 2053.6 216.978 2115.7 223.027C2167.04 227.954 2227.3 235.32 2284.94 252.62C2340.65 269.408 2391.14 292.815 2439.97 315.451C2448.82 319.557 2457.98 323.803 2466.91 327.886C2585.79 382.233 2706.33 443.814 2825.16 510.918L2824.88 511.078Z" fill="#ECC94B"/>
<path d="M2820.71 509.005C2702.92 441.164 2584.35 378.824 2468.3 323.722C2458.43 319.035 2448.29 314.115 2438.48 309.358C2391.77 286.697 2343.46 263.266 2289.3 247.146C2231.67 230.067 2171.32 224.619 2119.89 221.542C1993.87 213.8 1882.5 226.184 1779.42 259.403C1697.35 285.973 1627 321.518 1558.96 355.894C1545.22 362.837 1531.01 370.018 1517.19 376.862C1508.74 381.051 1501.26 384.73 1494.3 388.107C1461.93 403.794 1418.87 423.907 1372.87 440.345C1326.64 456.859 1282.91 467.811 1239.2 473.823C1191.52 480.381 1143.93 480.429 1101.59 473.966C1078.05 470.371 1056.2 464.767 1036.65 457.306C1015.54 449.251 996.905 438.94 981.243 426.663C979.823 425.545 978.4 424.389 977.016 423.231C953.005 403.151 936.866 380.34 921.263 358.283C917.488 352.947 913.587 347.43 909.65 342.07C888.958 313.794 866.489 289.497 840.956 267.796C837.724 265.049 834.377 262.293 831.007 259.603C769.584 210.557 686.352 169.766 590.308 141.644C477.237 108.657 358.712 94.8871 256.565 102.867C187.34 108.392 118.221 131.595 84.5762 160.6C61.1629 180.784 54.8358 203.345 66.2789 225.845L65.9014 225.905C59.9203 214.147 58.7013 202.405 62.2758 191.007C65.5789 180.471 72.9718 170.2 84.2459 160.478C101.517 145.589 127.714 132.182 160.007 121.708C189.959 111.994 224.234 105.222 256.51 102.647C310.152 98.4554 367.977 100.186 428.382 107.787C482.919 114.651 537.461 125.975 590.489 141.446C686.588 169.585 769.867 210.398 831.33 259.475C834.7 262.165 838.046 264.924 841.283 267.673C866.827 289.387 889.308 313.695 910.012 341.984C913.949 347.344 917.849 352.863 921.624 358.199C937.22 380.246 953.351 403.045 977.338 423.106C978.722 424.264 980.142 425.415 981.561 426.533C1037.61 470.481 1133.89 488.079 1239.1 473.609C1335.02 460.417 1418.32 424.638 1494.04 387.942C1500.99 384.565 1508.48 380.889 1516.93 376.699C1530.74 369.855 1544.95 362.677 1558.69 355.734C1626.75 321.351 1697.11 285.797 1779.22 259.216C1807 250.263 1835.73 242.727 1864.6 236.815C1892.22 231.162 1920.88 226.809 1949.79 223.879C2003.56 218.431 2059.21 217.597 2119.92 221.326C2171.39 224.406 2231.79 229.856 2289.49 246.954C2343.68 263.086 2392.01 286.525 2438.74 309.195C2448.54 313.952 2458.68 318.87 2468.56 323.557C2584.62 378.663 2703.2 441.007 2820.99 508.853L2820.71 509.005Z" fill="#ECC94B"/>
<path d="M2816.54 506.931C2699.8 438.341 2583.19 375.242 2469.94 319.383C2459.54 314.249 2448.83 308.814 2438.48 303.557C2393.47 280.705 2346.93 257.074 2293.86 241.473C2235.98 224.54 2175.59 221.033 2124.13 219.836C2002.88 216.806 1893.06 232.108 1788.41 266.616C1715.02 290.933 1649.6 321.707 1586.33 351.467C1564.57 361.701 1544.02 371.368 1523.12 380.805C1514.62 384.646 1506.88 388.098 1499.45 391.354C1451.49 412.344 1411.59 427.52 1373.88 439.112C1326.57 453.656 1282.08 462.748 1237.87 466.904C1220.71 468.515 1203.62 469.319 1186.84 469.319C1157.1 469.319 1128.32 466.8 1101.82 461.812C1053.87 452.785 1014.32 436.127 984.264 412.302C982.848 411.172 981.436 410.017 980.068 408.863C956.423 388.956 939.832 366.551 923.788 344.881C919.722 339.391 915.522 333.716 911.287 328.197C889.71 299.987 866.714 275.893 840.996 254.538C837.717 251.815 834.323 249.083 830.906 246.417C768.653 197.818 684.776 157.586 588.347 130.073C474.501 97.7201 355.65 84.7057 253.68 93.4275C184.168 99.4966 117.042 122.259 82.6775 151.418C58.7884 171.685 51.6237 194.381 61.9501 217.053L61.5686 217.108C56.1774 205.269 55.4617 193.457 59.4452 181.999C63.1337 171.393 70.8372 161.064 82.3511 151.297C99.8029 136.488 125.886 123.126 157.785 112.652C187.416 102.922 221.45 96.0185 253.621 93.2096C307.199 88.6263 365.087 89.9648 425.673 97.1874C480.345 103.706 535.134 114.704 588.527 129.875C685.012 157.405 768.936 197.659 831.228 246.287C834.646 248.955 838.039 251.687 841.323 254.412C867.056 275.778 890.064 299.885 911.649 328.107C915.884 333.625 920.088 339.303 924.15 344.793C940.186 366.452 956.769 388.849 980.394 408.738C981.763 409.889 983.171 411.045 984.586 412.172C1040.71 456.665 1133 476.535 1237.8 466.684C1337.56 457.306 1425.92 423.253 1499.2 391.178C1506.63 387.922 1514.37 384.472 1522.87 380.631C1543.77 371.194 1564.32 361.53 1586.07 351.296C1649.35 321.529 1714.79 290.75 1788.21 266.425C1815.78 257.333 1844.08 249.475 1872.32 243.064C1899.67 236.856 1927.87 231.804 1956.12 228.051C2009.99 220.894 2064.96 218.134 2124.15 219.613C2175.64 220.811 2236.1 224.322 2294.04 241.274C2347.15 256.886 2393.71 280.529 2438.74 303.39C2449.09 308.647 2459.8 314.082 2470.2 319.213C2583.45 375.077 2700.07 438.183 2816.82 506.777L2816.54 506.931Z" fill="#ECC94B"/>
<path d="M2812.38 504.858C2695.05 434.538 2583.58 372.449 2471.58 315.042C2460.89 309.565 2450.37 303.971 2439.23 298.05C2395.69 274.9 2350.67 250.965 2298.41 235.8C2239.81 218.874 2176.77 217.465 2128.39 218.13C2012.65 219.512 1904.38 237.733 1797.4 273.833C1733.21 295.597 1673.94 321.734 1616.63 347.012C1586.51 360.297 1558.06 372.843 1529.04 384.75C1520.43 388.287 1512.43 391.51 1504.59 394.603C1455.98 413.746 1414.77 427.495 1374.89 437.877C1326.48 450.478 1281.22 457.709 1236.53 459.985C1213.56 461.154 1190.76 460.934 1168.74 459.331C1145.43 457.634 1122.99 454.378 1102.05 449.656C1055.64 439.189 1017.02 421.792 987.284 397.945C985.88 396.813 984.48 395.655 983.12 394.502C959.872 374.8 942.864 352.821 926.415 331.567C922.027 325.897 917.489 320.032 912.923 314.331C890.442 286.182 866.926 262.289 841.032 241.286C837.701 238.587 834.26 235.879 830.804 233.237C767.721 185.085 683.203 145.412 586.389 118.51C497.03 93.782 404.879 80.8799 320.377 80.8799C296.488 80.8799 273.228 81.9101 250.794 83.9948C182.119 90.502 115.415 113.345 80.8493 142.192C56.453 162.554 48.4192 185.404 57.6169 208.27L57.2316 208.318C52.4302 196.387 52.2296 184.493 56.6339 172.969C60.7156 162.286 68.7534 151.889 80.519 142.069C98.1516 127.353 124.113 114.045 155.603 103.582C185.328 93.7049 218.222 86.8565 250.723 83.7791C304.238 78.804 362.189 79.7528 422.96 86.5946C477.761 92.7628 532.806 103.433 586.562 118.309C683.431 145.228 768 184.922 831.122 233.103C834.583 235.745 838.028 238.455 841.358 241.156C867.265 262.17 890.792 286.074 913.285 314.236C917.85 319.938 922.392 325.802 926.781 331.475C943.222 352.72 960.222 374.69 983.45 394.376C984.811 395.528 986.21 396.685 987.61 397.815C1043.23 442.407 1133.94 464.984 1236.5 459.763C1340.28 454.477 1434.16 422.065 1504.37 394.418C1512.21 391.325 1520.21 388.102 1528.82 384.567C1557.83 372.664 1586.28 360.117 1616.39 346.834C1673.72 321.553 1732.99 295.41 1797.2 273.639C1852.28 255.053 1906.33 241.508 1962.44 232.227C2016.56 223.276 2070.84 218.592 2128.39 217.905C2161.21 217.454 2188 218.237 2212.68 220.368C2244.54 223.12 2272.64 228.102 2298.6 235.599C2350.9 250.778 2395.95 274.726 2439.51 297.887C2450.65 303.808 2461.17 309.4 2471.85 314.877C2583.85 372.286 2695.34 434.379 2812.67 504.703L2812.38 504.858Z" fill="#ECC94B"/>
<path d="M2808.2 502.784C2691.96 431.693 2582.38 368.865 2473.22 310.701C2462.42 304.946 2451.77 299.018 2440.5 292.742C2398.26 269.227 2354.58 244.909 2302.97 230.125C2243.88 213.278 2180.9 213.951 2132.64 216.419C2023.42 221.81 1916.7 242.95 1806.38 281.042C1752.03 299.901 1700.28 321.483 1650.23 342.356C1610.67 358.855 1573.3 374.441 1534.97 388.686C1526.31 391.908 1517.81 394.99 1509.73 397.843C1461.03 415.023 1417.25 427.709 1375.9 436.629C1326.37 447.31 1280.35 452.685 1235.19 453.06C1212.21 453.249 1189.5 452.087 1167.68 449.601C1144.82 446.995 1122.81 442.92 1102.28 437.487C1057.46 425.629 1019.78 407.492 990.3 383.579C988.916 382.449 987.524 381.289 986.168 380.129C963.356 360.667 945.979 339.153 929.172 318.348C924.418 312.462 919.498 306.373 914.555 300.453C891.154 272.358 867.116 248.667 841.068 228.022C837.69 225.348 834.202 222.664 830.698 220.047C766.786 172.341 681.623 133.228 584.423 106.935C469.032 75.8519 349.516 64.352 247.9 74.5531C180.114 81.4763 113.854 104.379 79.0958 132.898C54.1489 153.368 45.2225 176.39 53.276 199.477L52.8906 199.519C48.6908 187.484 49.0133 175.498 53.854 163.895C58.3487 153.124 66.7285 142.652 78.7694 132.772C96.5751 118.162 122.407 104.921 153.472 94.4797C182.855 84.6045 215.482 77.6394 247.829 74.3352C301.285 68.9705 359.296 69.5252 420.247 75.9884C475.182 81.8131 530.475 92.1573 584.592 106.735C681.851 133.041 767.061 172.179 831.009 219.913C834.516 222.53 838.008 225.216 841.386 227.892C867.45 248.548 891.496 272.25 914.909 300.356C919.856 306.276 924.772 312.365 929.53 318.253C946.329 339.05 963.698 360.555 986.494 380.003C987.851 381.161 989.243 382.322 990.623 383.449C1046.82 429.034 1133.68 453.68 1235.18 452.835C1317.55 452.153 1404.72 434.617 1509.52 397.652C1517.6 394.799 1526.09 391.719 1534.75 388.496C1573.07 374.254 1610.44 358.672 1649.99 342.173C1700.05 321.298 1751.8 299.712 1806.17 280.848C1861.79 261.641 1914.97 247.104 1968.76 236.398C2023.24 225.555 2076.84 218.944 2132.6 216.192C2180.92 213.72 2243.97 213.049 2303.15 229.922C2354.81 244.724 2398.52 269.053 2440.78 292.579C2452.05 298.855 2462.69 304.781 2473.49 310.533C2582.66 368.7 2692.24 431.533 2808.49 502.627L2808.2 502.784Z" fill="#ECC94B"/>
<path d="M2804.03 500.71C2688.87 428.847 2581.2 365.274 2474.86 306.362C2464.07 300.381 2453.41 294.166 2442.12 287.586C2401.08 263.651 2358.63 238.901 2307.53 224.452C2247.88 207.666 2185.01 210.429 2136.89 214.711C2034.13 223.681 1931.96 247.051 1815.37 288.256C1771.64 303.779 1728.91 320.809 1687.58 337.277C1637.39 357.279 1589.98 376.173 1540.9 392.628C1532.05 395.595 1523.3 398.444 1514.88 401.09C1465.3 416.662 1420.17 427.88 1376.9 435.383C1352.67 439.585 1328.74 442.63 1305.8 444.432C1281.32 446.354 1257.11 446.929 1233.86 446.141C1186.67 444.54 1142.48 437.536 1102.51 425.323C1059.35 412.132 1022.61 393.258 993.327 369.219C991.951 368.081 990.57 366.919 989.222 365.765C966.898 346.589 949.21 325.586 932.108 305.276C926.929 299.128 921.577 292.77 916.194 286.585C891.849 258.535 867.287 235.045 841.106 214.768C837.68 212.115 834.141 209.456 830.594 206.865C765.852 159.604 680.048 121.05 582.463 95.3711C466.301 64.9243 346.459 54.1817 245.012 65.1202C136.389 77.0141 30.5415 128.405 48.9449 190.692L48.5556 190.727C43.9508 175.146 46.6484 159.796 56.5698 145.1C65.6299 131.678 80.4981 119.047 100.762 107.56C119.601 96.8791 142.205 87.6576 167.938 80.151C192.413 73.012 219.039 67.7376 244.933 64.9023C298.327 59.1457 356.4 59.3108 417.536 65.3954C472.605 70.8745 528.149 80.8929 582.628 95.173C680.268 120.869 766.123 159.446 830.905 206.733C834.456 209.326 837.995 211.985 841.424 214.64C867.617 234.926 892.191 258.429 916.548 286.49C921.931 292.676 927.283 299.033 932.462 305.184C949.56 325.487 967.24 346.481 989.552 365.646C990.897 366.8 992.273 367.962 993.649 369.098C1049.93 415.295 1135.25 442.577 1233.88 445.923C1317.38 448.751 1409.23 434.027 1514.69 400.901C1523.1 398.255 1531.85 395.408 1540.69 392.441C1589.77 375.99 1637.17 357.098 1687.36 337.099C1728.68 320.629 1771.42 303.597 1815.16 288.071C1931.8 246.848 2034.01 223.47 2136.83 214.493C2169.16 211.616 2195.93 210.695 2221.07 211.6C2253.22 212.756 2281.55 216.894 2307.7 224.254C2358.86 238.719 2401.33 263.484 2442.4 287.432C2453.68 294.01 2464.34 300.224 2475.13 306.203C2581.48 365.12 2689.15 428.695 2804.32 500.562L2804.03 500.71Z" fill="#ECC94B"/>
<path d="M2799.87 498.636C2685.8 425.989 2580.02 361.677 2476.5 302.02C2465.79 295.848 2455.2 289.383 2444 282.534C2404.06 258.141 2362.77 232.916 2312.08 218.776C2251.14 201.85 2185.34 207.374 2141.14 213C2021.19 228.084 1913.69 263.151 1824.36 295.469C1792.25 307.132 1760.23 319.486 1729.25 331.433C1667.12 355.399 1608.43 378.035 1546.83 396.571C1537.77 399.298 1528.75 401.911 1520.03 404.339C1469.49 418.382 1423 428.129 1377.92 434.134C1326.82 440.943 1277.9 442.656 1232.53 439.222C1185.92 435.693 1142.25 426.923 1102.75 413.153C1061.33 398.713 1025.53 379.101 996.352 354.862C994.991 353.724 993.619 352.559 992.278 351.401C970.509 332.577 952.601 312.151 935.279 292.396C929.604 285.922 923.733 279.23 917.835 272.716C892.176 244.314 867.807 221.691 841.15 201.514C837.678 198.885 834.095 196.252 830.497 193.683C764.917 146.872 678.468 108.876 580.498 83.8052C463.565 53.9967 343.393 44.0092 242.119 55.6851C133.106 68.4199 29.4219 119.113 44.6087 181.906L44.2194 181.935C40.4522 166.356 43.7121 151.021 53.9048 136.358C63.248 122.923 78.2027 110.279 98.36 98.7787C117.157 88.0538 139.642 78.7641 165.194 71.1628C189.524 63.9248 216.099 58.4985 242.04 55.4672C295.375 49.3188 353.507 49.0943 414.824 54.798C470.026 59.9315 525.822 69.6241 580.663 83.6048C678.693 108.689 765.189 146.707 830.8 193.547C834.398 196.118 837.984 198.753 841.461 201.381C868.134 221.568 892.51 244.204 918.181 272.617C924.079 279.131 929.95 285.825 935.625 292.299C952.943 312.048 970.847 332.467 992.601 351.282C993.941 352.44 995.31 353.603 996.671 354.741C1053.39 401.858 1137.17 431.783 1232.58 439.004C1318.14 445.48 1412.11 434.075 1519.85 404.141C1528.57 401.715 1537.59 399.104 1546.64 396.377C1608.23 377.846 1666.9 355.214 1729.03 331.25C1760 319.303 1792.03 306.947 1824.14 295.282C1884.21 273.553 1934.19 257.498 1981.4 244.759C2036.98 229.763 2089.2 219.305 2141.05 212.784C2172.66 208.76 2200.21 206.938 2225.28 207.215C2257.56 207.572 2286.01 211.287 2312.25 218.578C2363.01 232.735 2404.33 257.976 2444.28 282.384C2455.49 289.231 2466.07 295.696 2476.78 301.864C2580.31 361.523 2686.08 425.84 2800.16 498.489L2799.87 498.636Z" fill="#ECC94B"/>
<path d="M2795.7 496.56C2682.73 423.128 2578.86 358.074 2478.14 297.677C2467.58 291.344 2457.13 284.654 2446.06 277.57C2407.18 252.686 2366.98 226.955 2316.64 213.102C2255.03 196.215 2189.4 203.979 2145.4 211.29C2036.71 229.189 1939.77 263.27 1833.35 302.681C1814.16 309.816 1794.74 317.179 1775.96 324.303C1703.75 351.696 1629.08 380.021 1552.75 400.511C1543.48 403.003 1534.2 405.383 1525.17 407.584C1474.29 419.982 1425.09 428.493 1378.93 432.88C1326.65 437.85 1276.95 437.655 1231.19 432.301C1185.23 426.923 1142.09 416.385 1102.98 400.98C1063.4 385.39 1028.54 365.043 999.36 340.505C998.012 339.364 996.651 338.198 995.318 337.04C974.205 318.656 956.183 298.895 938.755 279.785C932.475 272.899 925.983 265.78 919.459 258.852C892.798 230.479 867.921 208.049 841.174 188.264C837.662 185.666 834.028 183.055 830.379 180.506C763.981 134.135 676.896 96.6986 578.532 72.2394C460.833 43.0693 340.333 33.8391 239.225 46.2503C133.673 59.3483 28.0731 108.262 40.2674 173.118L39.8781 173.14C36.9485 157.561 40.7707 142.244 51.2347 127.614C60.8572 114.164 75.9023 101.509 95.9495 89.9955C132.937 68.7569 185.127 52.7333 239.138 46.0323C292.41 39.4943 350.605 38.878 412.107 44.2008C467.443 48.991 523.487 58.3555 578.689 72.0369C677.108 96.5093 764.245 133.97 830.686 180.363C834.339 182.914 837.973 185.525 841.488 188.125C868.248 207.922 893.136 230.36 919.805 258.744C926.329 265.674 932.825 272.793 939.105 279.679C956.529 298.785 974.547 318.542 995.648 336.916C996.977 338.074 998.338 339.239 999.687 340.379C1058.06 389.474 1138.14 421.184 1231.26 432.083C1317.49 442.174 1416.32 433.864 1525.01 407.382C1534.03 405.18 1543.3 402.803 1552.57 400.313C1628.87 379.83 1703.53 351.509 1775.73 324.12C1794.51 316.996 1813.92 309.633 1833.12 302.498C1879.71 285.246 1933.92 265.458 1987.71 248.937C2043.99 231.657 2095.53 219.274 2145.28 211.081C2176.59 205.879 2204.14 203.18 2229.48 202.832C2261.44 202.392 2290.81 205.782 2316.8 212.906C2339.35 219.111 2362.05 228.372 2386.19 241.219C2407.51 252.563 2427.25 265.203 2446.35 277.425C2457.41 284.507 2467.86 291.197 2478.42 297.528C2579.14 357.926 2683.02 422.983 2795.99 496.417L2795.7 496.56Z" fill="#ECC94B"/>
<path d="M2791.53 494.486C2679.67 420.261 2577.69 354.465 2479.78 293.338C2469.41 286.866 2459.14 279.974 2448.26 272.678C2410.4 247.277 2371.25 221.011 2321.19 207.43C2274.42 194.779 2218.3 195.484 2149.64 209.583C2053.65 229.186 1967.84 261.975 1876.98 296.693C1865.67 301.016 1853.97 305.485 1842.33 309.899C1837.78 311.631 1833.22 313.368 1828.66 315.103C1742.09 348.055 1652.58 382.13 1558.68 404.456C1549.19 406.714 1539.65 408.861 1530.32 410.833C1478.32 421.824 1427.73 428.82 1379.96 431.625C1326.47 434.764 1275.97 432.664 1229.86 425.382C1184.62 418.234 1142.01 405.928 1103.24 388.806C1065.65 372.21 1031.72 351.13 1002.39 326.147C1001.05 325.005 999.706 323.836 998.381 322.675C978.07 304.869 960.107 285.904 942.73 267.565C935.695 260.137 928.416 252.457 921.106 244.981C893.414 216.628 868.035 194.392 841.224 175.007C837.662 172.431 833.985 169.847 830.288 167.322C763.049 121.4 675.318 84.5203 576.569 60.6731C458.107 32.1436 337.274 23.6684 236.334 36.8149C132.72 50.4214 27.2704 99.7361 35.9334 164.332L35.5402 164.35C33.4521 148.769 37.8327 133.47 48.5681 118.877C58.4737 105.411 73.6054 92.7402 93.5463 81.2183C130.377 59.9357 182.386 43.6743 236.244 36.6014C289.456 29.6715 347.71 28.6633 409.393 33.6075C464.863 38.0499 521.162 47.0886 576.726 60.4706C675.531 84.3332 763.316 121.232 830.583 167.179C834.28 169.704 837.964 172.293 841.527 174.868C868.35 194.264 893.745 216.507 921.444 244.871C928.758 252.347 936.033 260.03 943.072 267.457C960.441 285.792 978.404 304.752 998.707 322.552C1000.03 323.712 1001.38 324.879 1002.71 326.022C1062.36 376.82 1140.94 411.101 1229.96 425.164C1317.85 439.045 1418.86 434.152 1530.18 410.622C1539.5 408.649 1549.03 406.505 1558.52 404.249C1652.39 381.931 1741.89 347.863 1828.43 314.916C1833 313.179 1837.55 311.444 1842.11 309.712C1853.75 305.298 1865.44 300.829 1876.76 296.508C1967.63 261.784 2053.47 228.986 2149.51 209.374C2180.52 203.004 2208.06 199.431 2233.69 198.447C2265.77 197.216 2295.26 200.173 2321.36 207.23C2343.78 213.312 2366.19 222.615 2389.89 235.672C2410.79 247.191 2429.99 260.076 2448.57 272.535C2459.44 279.828 2469.71 286.719 2480.07 293.188C2577.99 354.318 2679.97 420.116 2791.83 494.343L2791.53 494.486Z" fill="#ECC94B"/>
<path d="M2787.36 492.413C2685.26 423.247 2582.33 354.807 2481.42 288.997C2471.14 282.336 2460.96 275.18 2450.18 267.605C2415.13 242.963 2375.39 215.034 2325.75 201.758C2278.42 189.129 2222.21 191.13 2153.89 207.873C2072.66 227.716 2000.77 256.893 1924.66 287.782C1900.82 297.455 1876.18 307.46 1851.32 317.111C1807.92 333.993 1760.98 351.857 1711.78 368.127C1659.08 385.553 1610.94 398.724 1564.59 408.396C1554.86 410.428 1545.06 412.341 1535.46 414.078C1482.36 423.683 1430.39 429.149 1381 430.324C1326.33 431.623 1275.03 427.634 1228.52 418.459C1142.63 401.306 1067.56 365.417 1005.4 311.788C1004.08 310.643 1002.74 309.472 1001.42 308.312C982.14 291.291 964.492 273.335 947.426 255.968C939.392 247.795 931.087 239.342 922.73 231.115C893.985 202.768 868.094 180.728 841.252 161.755C837.638 159.201 833.914 156.641 830.175 154.143C762.117 108.663 673.742 72.345 574.607 49.1075C455.378 21.2164 334.218 13.5007 233.444 27.3802C129.201 41.8189 26.3938 90.4797 31.5963 155.547L31.2031 155.556C29.9565 139.97 34.9034 124.689 45.9022 110.133C56.0949 96.6501 71.3131 83.9659 91.14 72.4352C109.819 61.5716 131.958 52.0728 156.94 44.2007C181.195 36.5599 206.901 30.8275 233.346 27.1645C286.499 19.845 344.816 18.4449 406.68 23.0083C462.283 27.1095 518.831 35.8202 574.756 48.9028C673.95 72.1535 762.377 108.493 830.473 153.995C834.213 156.496 837.945 159.058 841.559 161.612C868.413 180.596 894.315 202.645 923.072 231.001C931.429 239.229 939.734 247.682 947.768 255.858C964.834 273.223 982.479 291.177 1001.75 308.191C1003.06 309.353 1004.41 310.522 1005.73 311.667C1067.84 365.254 1142.84 401.114 1228.65 418.25C1317.04 435.684 1423.09 434.17 1535.34 413.867C1544.93 412.13 1554.73 410.219 1564.45 408.19C1668.07 386.566 1762.87 351.249 1851.09 316.928C1875.95 307.277 1900.59 297.274 1924.43 287.602C2000.55 256.706 2072.46 227.523 2153.73 207.671C2222.16 190.901 2278.48 188.9 2325.91 201.558C2348.15 207.503 2370.22 216.824 2393.4 230.047C2413.84 241.708 2432.47 254.804 2450.49 267.466C2461.27 275.041 2471.44 282.195 2481.72 288.852C2582.63 354.664 2685.56 423.104 2787.66 492.272L2787.36 492.413Z" fill="#ECC94B"/>
<path d="M2783.19 490.34C2682.65 420.79 2581.68 351.589 2483.06 284.657C2473.1 277.923 2463.23 270.641 2452.77 262.931C2418.58 237.715 2379.82 209.133 2330.3 196.081C2282.41 183.474 2226.1 186.771 2158.14 206.159C2086.93 226.442 2021.52 255.081 1958.25 282.781C1926.53 296.669 1893.73 311.031 1860.3 324.32C1807.54 345.317 1763.16 361.334 1720.6 374.729C1668.13 391.246 1619.04 403.547 1570.52 412.335C1560.56 414.14 1550.49 415.817 1540.6 417.321C1489.07 425.151 1438.47 429.113 1390.06 429.116C1387.37 429.116 1384.7 429.102 1382.02 429.078C1326.06 428.568 1273.96 422.664 1227.18 411.534C1204.6 406.131 1182.49 399.274 1161.47 391.151C1141.7 383.517 1122.28 374.524 1103.74 364.425C1070.38 346.255 1039.2 324.338 1008.42 297.427C1007.09 296.269 1005.78 295.109 1004.47 293.944C986.607 278.066 969.71 261.468 953.371 245.415C943.937 236.15 934.185 226.567 924.362 217.24C894.118 188.504 868.499 167.3 841.283 148.494C837.622 145.965 833.851 143.429 830.064 140.955C761.181 95.9261 672.164 60.1674 572.644 37.5397C452.652 10.2892 331.162 3.33076 230.553 17.9433C128.265 32.842 25.5911 81.8727 27.2624 146.757L26.8691 146.76C26.0905 116.537 47.4865 87.7987 88.7408 63.6521C107.388 52.7378 129.409 43.1708 154.199 35.2107C178.32 27.4663 203.974 21.5843 230.455 17.7276C283.546 10.0163 341.925 8.22655 403.97 12.4091C459.707 16.1668 516.506 24.5518 572.79 37.3328C672.373 59.9759 761.44 95.7566 830.367 140.812C834.154 143.288 837.932 145.826 841.593 148.356C868.821 167.173 894.452 188.383 924.704 217.13C934.527 226.459 944.283 236.042 953.713 245.307C970.052 261.357 986.945 277.953 1004.8 293.827C1006.11 294.992 1007.42 296.152 1008.75 297.308C1074.16 354.494 1145.66 391.792 1227.34 411.331C1340.47 438.249 1460.08 429.331 1540.5 417.11C1550.38 415.606 1560.44 413.931 1570.4 412.126C1681.99 391.913 1783.82 354.488 1860.07 324.142C1893.49 310.857 1926.29 296.495 1958.01 282.609C2021.29 254.905 2086.72 226.257 2157.96 205.965C2188.37 197.289 2215.89 191.962 2242.1 189.682C2274.41 186.868 2304.15 188.955 2330.46 195.885C2352.64 201.73 2374.5 211.125 2397.31 224.606C2417.4 236.484 2435.54 249.862 2453.09 262.802C2463.54 270.508 2473.41 277.788 2483.36 284.518C2581.98 351.45 2682.96 420.651 2783.5 490.201L2783.19 490.34Z" fill="#ECC94B"/>
<path d="M2779.02 488.266L2484.7 280.317C2475.08 273.526 2465.54 266.136 2455.43 258.315C2422.08 232.502 2384.28 203.246 2334.86 190.41C2287.06 177.999 2229.04 182.723 2162.39 204.452C2098.31 225.341 2039.88 253.12 1983.36 279.985C1946.52 297.497 1908.43 315.603 1869.29 331.538C1751.65 379.435 1648.85 407.725 1545.75 420.57C1502.98 425.897 1460.79 428.578 1419.88 428.578C1407.47 428.578 1395.2 428.332 1383.05 427.839C1325.76 425.514 1272.87 417.699 1225.86 404.614C1182.28 392.485 1142.41 375.363 1103.99 352.266C1073.31 333.823 1043.9 311.836 1011.44 283.071C994.306 267.891 977.716 252.118 961.672 236.865C925.361 202.348 887.814 166.655 841.33 135.242C770.029 87.061 676.439 49.277 570.678 25.9736C449.927 -0.634153 328.107 -6.83755 227.663 8.50805C130.416 23.365 24.8676 70.2141 22.925 137.972L22.5317 137.967C23.4008 107.681 45.4652 78.9468 86.3381 54.8707C123.294 33.1015 173.448 16.5606 227.561 8.29452C280.592 0.193556 339.035 -1.98798 401.257 1.81375C457.127 5.22584 514.178 13.2872 570.824 25.7688C623.155 37.2995 672.856 52.4778 718.55 70.8833C764.626 89.4429 806.037 111.047 841.629 135.097C888.133 166.521 925.691 202.222 962.01 236.748C978.054 251.999 994.645 267.77 1011.77 282.948C1059.14 324.919 1126.29 376.653 1226.03 404.412C1340.42 436.246 1462.98 430.65 1545.67 420.35C1648.71 407.514 1751.47 379.235 1869.06 331.356C1908.18 315.427 1946.27 297.321 1983.1 279.813C2039.63 252.944 2098.09 225.158 2162.19 204.259C2228.95 182.492 2287.11 177.763 2335.02 190.207C2357.15 195.955 2378.81 205.432 2401.25 219.184C2421 231.289 2438.67 244.962 2455.75 258.183C2465.86 266.004 2475.4 273.39 2485.01 280.179L2779.33 488.127L2779.02 488.266Z" fill="#ECC94B"/>
<path d="M2776.65 472.279C2701.7 414.379 2637.4 367.396 2574.28 324.423C2543.65 303.548 2512.36 283.001 2481.28 263.351C2471.88 257.408 2462.57 251.086 2452.71 244.391C2427.94 227.566 2402.32 210.169 2372.84 197.258C2357.01 190.313 2341.77 185.34 2326.26 182.056C2278.62 171.874 2222.74 178.606 2160.15 202.066C2127.76 214.189 2098.27 227.985 2073.69 239.881C2047.67 252.475 2022.01 266.363 1997.18 279.793C1961.5 299.099 1924.61 319.061 1884.95 336.205C1860.82 346.668 1836.35 356.017 1812.24 363.995C1763.99 379.955 1712.2 393.106 1658.31 403.082C1625.01 409.178 1591.56 413.785 1558.87 416.774C1530.71 419.341 1502.49 420.823 1475 421.177C1433.85 421.71 1393.77 419.678 1355.85 415.132C1315.54 410.298 1277.38 402.582 1242.46 392.196C1211.31 382.935 1181.9 371.275 1152.52 356.546C1097.79 329.121 1054.14 297.411 1022.23 272.848C1006.55 260.725 991.239 248.362 976.434 236.407C933.803 201.976 893.536 169.455 843.147 140.488C802.05 117.017 755.16 96.7622 703.769 80.2829C664.276 67.6185 621.323 57.2612 576.105 49.497C565.334 47.6501 554.359 45.9286 543.494 44.3855C496.714 37.7528 444.052 33.4338 386.974 31.5472C329.428 29.6012 279.641 31.2852 234.777 36.7006C209.413 39.7384 184.84 44.5043 161.729 50.864C80.1407 73.3178 27.75 111.011 21.5841 151.697L21.0925 151.673C22.7363 140.827 27.5613 130.143 35.4299 119.916C42.9053 110.201 53.1727 100.832 65.945 92.0689C90.0778 75.5147 123.125 61.1796 161.513 50.6153C184.659 44.2446 209.271 39.472 234.674 36.4298C279.586 31.0101 329.413 29.3238 387.006 31.272C444.115 33.1586 496.805 37.482 543.616 44.1191C554.493 45.6644 565.472 47.3859 576.25 49.235C621.504 57.0036 664.492 67.3698 704.016 80.0451C755.444 96.5354 802.372 116.808 843.489 140.294C893.91 169.279 934.185 201.808 976.831 236.248C991.632 248.204 1006.94 260.565 1022.62 272.685C1054.51 297.237 1098.15 328.932 1152.85 356.339C1182.19 371.052 1211.57 382.702 1242.68 391.952C1311.04 412.277 1389.19 422.018 1474.98 420.902C1502.45 420.548 1530.65 419.066 1558.79 416.502C1591.45 413.512 1624.88 408.909 1658.15 402.818C1712.01 392.848 1763.77 379.706 1811.98 363.755C1836.09 355.784 1860.53 346.439 1884.65 335.985C1924.28 318.85 1961.17 298.892 1996.84 279.593C2021.66 266.16 2047.34 252.268 2073.37 239.669C2097.96 227.767 2127.46 213.966 2159.88 201.835C2187.74 191.389 2214.72 184.173 2240.08 180.385C2271.22 175.731 2300.27 176.207 2326.43 181.798C2341.99 185.093 2357.28 190.08 2373.14 197.04C2402.67 209.971 2428.3 227.379 2453.1 244.215C2462.95 250.907 2472.26 257.229 2481.65 263.169C2512.73 282.82 2544.03 303.37 2574.67 324.25C2637.79 367.226 2702.1 414.214 2777.05 472.119L2776.65 472.279Z" fill="#ECC94B"/>
<path d="M2774.28 456.289C2704.79 397.409 2639.57 348.139 2574.9 305.664C2543.36 284.916 2510.71 264.972 2477.87 246.386C2469.16 241.455 2460.56 236.33 2451.45 230.906C2424.18 214.662 2395.97 197.866 2364.39 186.245C2348.44 180.352 2333.16 176.249 2317.66 173.699C2258.32 163.934 2198.04 182.434 2157.92 199.673C2129.49 211.851 2103.53 225.621 2077.24 239.835C2054.22 252.277 2032.57 265.661 2009.64 279.829C1975.61 300.86 1940.43 322.608 1900.61 340.868C1876.98 351.762 1852.32 361.182 1827.31 368.865C1780.73 383.178 1729.73 394.292 1671.38 402.847C1638.73 407.633 1605.28 411.042 1571.99 412.977C1543.89 414.591 1515.84 415.168 1488.62 414.686C1448.13 413.977 1408.54 410.789 1370.97 405.213C1331.5 399.355 1293.85 390.797 1259.05 379.774C1228.56 370.119 1199.12 358.14 1169.05 343.153C1114.44 315.973 1067.66 285.841 1033.01 262.625C1020.18 254.031 1007.55 245.384 995.345 237.019C946.721 203.708 900.796 172.242 844.964 145.734C803.238 125.921 756.392 109.169 705.735 95.9434C667.406 85.9361 626.781 78.4383 581.544 73.0208C571.103 71.7726 560.482 70.6477 549.979 69.6769C503.844 65.4349 454.607 63.8301 395.036 62.1703C352.095 60.9134 295.882 60.0856 241.879 64.889C216.303 67.1212 191.58 70.9977 168.391 76.4064C86.7473 95.4547 31.3641 128.73 20.2355 165.422L19.6536 165.367C22.6028 155.637 28.58 146.095 37.4081 137.001C45.8233 128.336 56.8811 120.028 70.2708 112.302C95.7171 97.6231 129.567 85.104 168.163 76.1005C191.395 70.6807 216.165 66.7976 241.784 64.561C295.838 59.751 352.095 60.5809 395.063 61.8379C454.654 63.4977 503.907 65.1025 550.073 69.3467C560.584 70.3197 571.213 71.4446 581.665 72.6928C626.946 78.1169 667.611 85.6213 705.983 95.6396C756.691 108.879 803.576 125.644 845.345 145.476C901.216 172.004 947.162 203.479 995.801 236.803C1008.01 245.166 1020.63 253.813 1033.46 262.405C1068.1 285.612 1114.86 315.733 1169.45 342.9C1199.48 357.871 1228.89 369.838 1259.34 379.482C1327.76 401.154 1404.92 412.885 1488.64 414.351C1515.84 414.831 1543.86 414.256 1571.93 412.643C1605.19 410.71 1638.61 407.305 1671.23 402.521C1729.53 393.975 1780.49 382.87 1827.03 368.57C1852.01 360.896 1876.64 351.489 1900.24 340.606C1940.02 322.361 1975.19 300.623 2009.21 279.602C2032.14 265.428 2053.8 252.041 2076.83 239.592C2103.14 225.37 2129.11 211.596 2157.57 199.405C2183.58 188.228 2209.23 180.189 2233.82 175.505C2263.63 169.825 2291.9 169.11 2317.83 173.376C2333.38 175.936 2348.72 180.053 2364.72 185.963C2396.36 197.606 2424.59 214.418 2451.88 230.675C2460.99 236.097 2469.59 241.219 2478.3 246.148C2511.15 264.741 2543.8 284.692 2575.35 305.446C2640.04 347.932 2705.27 397.211 2774.77 456.104L2774.28 456.289Z" fill="#ECC94B"/>
<path d="M2771.9 440.299C2706.87 379.641 2642.63 329.465 2575.51 286.906C2543.06 266.286 2509.06 246.948 2474.46 229.423C2467.07 225.676 2459.46 221.7 2452.1 217.857C2421.7 201.976 2390.26 185.556 2355.94 175.234C2339.83 170.356 2324.5 167.12 2309.07 165.344C2249.86 158.522 2192.98 178.946 2155.69 197.279C2130.42 209.655 2107.32 223.682 2084.97 237.248L2080.79 239.789C2060.5 252.097 2041.47 265.595 2021.32 279.889C1989.24 302.648 1956.07 326.181 1916.27 345.531C1893.11 356.872 1868.25 366.362 1842.39 373.737C1797.29 386.595 1747.09 395.77 1684.44 402.612C1652.04 406.149 1618.61 408.359 1585.09 409.178C1557.06 409.836 1529.19 409.506 1502.24 408.192C1420.64 404.232 1344.4 390.491 1275.63 367.353C1245.9 357.35 1216.45 345.055 1185.58 329.76C1133.35 303.932 1086.89 277.383 1043.79 252.405C1038.01 249.056 1032.29 245.73 1026.62 242.43C967.744 208.202 912.14 175.87 846.793 150.986C804.131 134.74 757.332 121.493 707.701 111.609C671.264 104.353 631.775 99.4263 586.986 96.547C576.892 95.902 566.624 95.3715 556.467 94.9708C530.915 93.9802 503.813 93.8195 475.118 93.65C452.071 93.5135 428.241 93.3726 403.093 92.7981C354.525 91.5939 299.48 90.2313 248.973 93.0843C222.913 94.557 198.041 97.542 175.045 101.958C93.4325 117.632 35.0528 146.493 18.879 179.164L18.2145 179.06C22.4771 170.446 29.6026 162.044 39.3902 154.086C48.7492 146.476 60.5934 139.225 74.5926 132.535C101.368 119.74 136.028 109.042 174.816 101.592C197.864 97.1656 222.787 94.1739 248.898 92.699C299.456 89.8439 354.529 91.2087 403.117 92.4129C428.249 92.9852 452.079 93.1283 475.118 93.2648C503.825 93.4343 530.934 93.595 556.51 94.5878C566.675 94.9906 576.955 95.5212 587.057 96.1661C631.901 99.0477 671.437 103.981 707.925 111.248C757.615 121.143 804.465 134.406 847.174 150.669C912.581 175.575 968.212 207.922 1027.11 242.166C1032.78 245.466 1038.5 248.79 1044.28 252.141C1087.37 277.115 1133.81 303.657 1186.03 329.476C1216.87 344.754 1246.29 357.037 1275.99 367.027C1344.66 390.137 1420.81 403.858 1502.3 407.813C1529.22 409.125 1557.06 409.456 1585.06 408.797C1618.55 407.979 1651.94 405.771 1684.3 402.237C1746.9 395.402 1797.03 386.238 1842.07 373.398C1867.88 366.038 1892.69 356.566 1915.81 345.244C1955.56 325.919 1988.71 302.4 2020.78 279.653C2040.93 265.353 2059.97 251.848 2080.28 239.531L2084.46 236.991C2106.82 223.417 2129.93 209.382 2155.23 196.992C2192.64 178.6 2249.71 158.117 2309.2 164.969C2324.7 166.755 2340.09 170.002 2356.26 174.9C2390.66 185.244 2422.13 201.681 2452.56 217.579C2459.92 221.423 2467.53 225.399 2474.92 229.143C2509.53 246.677 2543.55 266.027 2576.02 286.658C2643.17 329.234 2707.43 379.427 2772.48 440.105L2771.9 440.299Z" fill="#ECC94B"/>
<path d="M2769.53 424.306C2709.82 362.732 2644.75 310.192 2576.13 268.151C2542.77 247.661 2507.42 228.925 2471.07 212.463C2465.82 210.086 2460.44 207.618 2455.24 205.232C2420.88 189.468 2385.35 173.165 2347.51 164.227C2331.27 160.351 2315.89 157.984 2300.5 156.989C2241.45 153.177 2187.95 175.492 2153.47 194.883C2132.06 206.863 2112.73 220.186 2094.04 233.07C2090.81 235.3 2087.58 237.526 2084.34 239.742C2066.56 251.92 2049.94 265.525 2032.34 279.926C2002.42 304.409 1971.49 329.725 1931.93 350.197C1908.7 362.219 1884.34 371.513 1857.46 378.614C1801.23 393.467 1745.04 398.964 1697.5 402.385C1665.34 404.696 1631.93 405.709 1598.19 405.387C1570.25 405.09 1542.55 403.851 1515.85 401.707C1436.71 395.365 1361.47 379.629 1292.22 354.937C1263.41 344.665 1233.94 332.052 1202.11 316.376C1169.97 300.579 1140.01 285.379 1111.03 270.678C1091.35 260.686 1072.75 251.249 1054.58 242.195C985.923 207.968 923.033 177.876 848.637 156.245C805.059 143.576 758.307 133.829 709.679 127.275C674.827 122.578 637.572 120.291 592.44 120.073C582.704 120.033 572.786 120.097 562.967 120.264C548.052 120.535 532.621 121.101 516.29 121.702C484.949 122.853 449.421 124.158 411.151 123.427C396.578 123.148 381.709 122.754 367.329 122.371C330.341 121.387 292.095 120.37 256.063 121.279C229.602 121.948 204.577 124.044 181.69 127.509C100.216 139.847 38.8437 164.298 17.5146 192.913L16.7871 192.744C22.3711 185.25 30.6447 177.99 41.3761 171.164C51.6828 164.608 64.3135 158.416 78.9104 152.76C107.039 141.864 142.504 132.986 181.478 127.084C204.419 123.61 229.5 121.508 256.02 120.839C292.091 119.927 330.353 120.947 367.36 121.931C381.737 122.314 396.605 122.708 411.175 122.987C449.409 123.718 484.91 122.415 516.235 121.264C532.574 120.663 548.009 120.097 562.94 119.826C572.771 119.659 582.696 119.595 592.444 119.635C637.639 119.85 674.949 122.144 709.86 126.848C758.547 133.411 805.361 143.169 848.995 155.856C882.601 165.625 916.655 178.003 953.104 193.695C985.735 207.741 1017.48 223.111 1055.1 241.867C1073.26 250.923 1091.86 260.36 1111.56 270.352C1140.53 285.051 1170.48 300.251 1202.62 316.046C1234.42 331.706 1263.86 344.306 1292.63 354.567C1361.79 379.226 1436.92 394.94 1515.96 401.273C1542.62 403.415 1570.29 404.652 1598.19 404.949C1631.89 405.271 1665.27 404.26 1697.39 401.949C1744.88 398.534 1800.99 393.044 1857.12 378.218C1883.92 371.136 1908.22 361.867 1931.39 349.876C1970.88 329.439 2001.79 304.143 2031.69 279.679C2049.29 265.269 2065.92 251.658 2083.72 239.467C2086.96 237.25 2090.19 235.025 2093.42 232.797C2112.12 219.904 2131.46 206.572 2152.9 194.577C2175.33 181.961 2198.35 172.256 2221.31 165.731C2248.5 158.002 2275.17 154.916 2300.57 156.558C2316.04 157.557 2331.49 159.935 2347.8 163.827C2385.75 172.788 2421.32 189.111 2455.72 204.895C2460.92 207.281 2466.3 209.749 2471.54 212.124C2507.92 228.599 2543.3 247.352 2576.69 267.858C2613.12 290.182 2648.81 315.616 2682.75 343.455C2712.74 368.059 2742.16 395.193 2770.2 424.099L2769.53 424.306Z" fill="#ECC94B"/>
<path d="M2767.15 408.308C2711.89 344.969 2647.83 291.502 2576.74 249.393C2542.47 229.032 2505.77 210.902 2467.67 195.501C2465.86 194.768 2464.05 194.035 2462.23 193.3C2422.61 177.265 2381.64 160.685 2339.1 153.22C2322.61 150.328 2307.19 148.828 2291.94 148.635C2233.13 147.891 2182.97 172.07 2151.26 192.483C2132.6 204.426 2116.03 217.515 2100.01 230.173C2096.05 233.303 2091.95 236.539 2087.91 239.691C2072.51 251.697 2058.19 265.348 2043.03 279.802C2015.46 306.093 1986.96 333.277 1947.6 354.859C1924.84 367.345 1900.28 376.71 1872.54 383.49C1817.88 396.846 1762.39 400.352 1710.56 402.153C1678.6 403.263 1645.2 403.073 1611.29 401.592C1583.44 400.337 1555.92 398.191 1529.47 395.214C1453.02 386.629 1378.78 368.899 1308.82 342.516C1280.8 331.952 1252.15 319.391 1218.66 302.987C1155 271.895 1107.74 249.996 1065.4 231.982C981.197 196.155 916.93 175.077 850.517 161.504C806.053 152.417 759.349 146.171 711.693 142.94C678.629 140.699 643.541 140.899 597.926 143.596C588.579 144.155 579.015 144.813 569.499 145.555C560.509 146.266 551.379 147.081 541.709 147.941C506.007 151.122 465.539 154.728 419.224 154.054C394.812 153.7 369.877 152.729 345.764 151.791C318.359 150.726 290.023 149.623 263.157 149.473C236.22 149.324 211.041 150.53 188.34 153.062C107.137 162.111 42.7641 182.155 16.146 206.675L15.391 206.418C22.3041 200.047 31.726 193.93 43.3933 188.235C54.6556 182.736 68.0649 177.604 83.2516 172.979C112.752 163.993 149.032 156.936 188.167 152.575C210.931 150.039 236.165 148.828 263.165 148.978C290.054 149.128 318.406 150.231 345.823 151.298C369.928 152.236 394.851 153.207 419.244 153.561C465.476 154.233 505.901 150.631 541.563 147.455C551.237 146.592 560.376 145.78 569.369 145.066C578.897 144.324 588.468 143.666 597.824 143.105C643.51 140.406 678.657 140.204 711.791 142.451C759.514 145.687 806.285 151.941 850.811 161.041C917.315 174.633 981.649 195.733 1065.93 231.59C1108.28 249.611 1155.56 271.516 1219.23 302.617C1252.7 319.008 1281.32 331.556 1309.3 342.109C1379.17 368.455 1453.3 386.16 1529.64 394.732C1556.05 397.704 1583.55 399.846 1611.36 401.101C1645.23 402.58 1678.58 402.769 1710.5 401.662C1762.25 399.864 1817.65 396.366 1872.18 383.041C1899.82 376.287 1924.29 366.953 1946.98 354.511C1986.25 332.976 2014.72 305.82 2042.26 279.558C2057.43 265.095 2071.76 251.433 2087.18 239.41C2091.22 236.259 2095.32 233.023 2099.28 229.893C2115.31 217.224 2131.89 204.126 2150.59 192.164C2171.28 178.842 2192.98 168.304 2215.08 160.841C2240.96 152.1 2266.83 147.831 2291.96 148.146C2307.29 148.34 2322.79 149.848 2339.36 152.753C2382.05 160.245 2423.07 176.847 2462.75 192.906C2464.56 193.641 2466.38 194.377 2468.19 195.107C2506.33 210.526 2543.07 228.678 2577.39 249.06C2648.53 291.207 2712.64 344.715 2767.94 408.099L2767.15 408.308Z" fill="#ECC94B"/>
<path d="M1730.12 401.925C1727.92 401.925 1725.74 401.922 1723.61 401.916C1691.81 401.841 1658.43 400.454 1624.38 397.791C1596.64 395.578 1569.28 392.525 1543.08 388.719C1505.65 383.29 1468.08 375.489 1431.41 365.532C1396 355.916 1360.33 343.994 1325.41 330.092C1291.18 316.473 1259.22 301.297 1235.19 289.596C1178.97 262.295 1125.49 239.476 1076.21 221.771C996.411 193.096 925.294 175.615 852.4 166.759C808.425 161.416 761.244 158.599 715.818 158.599C715.114 158.599 714.414 158.599 713.71 158.601C674.685 158.676 637.635 162.735 603.416 167.111C594.509 168.258 585.295 169.511 576.031 170.838C570.954 171.573 565.869 172.331 560.49 173.132C522.547 178.792 479.539 185.204 427.289 184.678C395.469 184.357 362.968 182.512 331.537 180.726C311.242 179.573 290.259 178.382 270.243 177.662C242.728 176.674 217.408 176.991 194.978 178.609C114.207 184.429 46.8342 200.068 14.7501 220.443L14.0109 220.08C30.4678 209.63 55.222 200.583 87.5852 193.186C118.494 186.124 155.587 180.894 194.852 178.065C217.341 176.445 242.728 176.123 270.306 177.116C290.341 177.836 311.336 179.029 331.639 180.183C363.05 181.968 395.532 183.813 427.309 184.132C479.424 184.658 522.358 178.254 560.238 172.606C565.622 171.802 570.706 171.045 575.787 170.31C585.059 168.982 594.281 167.728 603.195 166.581C637.474 162.198 674.587 158.132 713.706 158.055C759.856 157.965 807.882 160.791 852.609 166.226C890.23 170.798 926.702 177.528 964.103 186.8C1000.12 195.731 1036.97 207.019 1076.74 221.313C1126.05 239.031 1179.58 261.868 1235.83 289.187C1259.84 300.881 1291.78 316.046 1325.97 329.65C1396.84 357.858 1469.97 377.554 1543.33 388.193C1569.49 391.994 1596.81 395.043 1624.52 397.253C1658.52 399.913 1691.86 401.299 1723.61 401.372C1773.29 401.487 1830.97 400.549 1887.24 387.858C1915.72 381.435 1940.35 372.041 1962.56 359.144C2001.56 336.492 2027.41 307.419 2052.41 279.301C2065.28 264.838 2077.42 251.176 2090.63 239.351C2094.86 235.562 2099.13 231.659 2103.26 227.884C2117.21 215.129 2131.64 201.943 2148.26 189.754C2167.25 175.732 2187.63 164.357 2208.83 155.948C2233.41 146.198 2258.47 140.743 2283.31 139.735C2298.64 139.112 2314.2 139.748 2330.88 141.681C2375.48 146.846 2419.68 161.85 2464.81 178.089C2504.16 192.248 2543.32 210.288 2578.06 230.261C2616.65 252.383 2652.91 278.334 2685.83 307.394C2715.16 333.284 2742.02 361.783 2765.67 392.1L2764.77 392.32C2713.98 327.213 2650.92 272.818 2577.36 230.646C2542.67 210.702 2503.57 192.689 2464.28 178.554C2419.23 162.343 2375.11 147.367 2330.68 142.221C2314.09 140.299 2298.62 139.667 2283.38 140.286C2237.74 142.141 2190.03 159.827 2149.04 190.089C2132.45 202.256 2118.04 215.431 2104.1 228.172C2099.97 231.95 2095.7 235.855 2091.46 239.643C2078.28 251.447 2066.14 265.098 2053.29 279.547C2041.02 293.343 2028.34 307.61 2013.78 321.324C1997.28 336.873 1980.76 349.367 1963.27 359.527C1940.97 372.482 1916.22 381.917 1887.61 388.371C1862.37 394.064 1835.25 397.826 1804.69 399.877C1778.82 401.605 1752.82 401.925 1730.12 401.925Z" fill="#ECC94B"/>
<path d="M1793.18 403.027C1773.13 403.027 1753.87 402.358 1736.64 401.68C1704.96 400.434 1671.59 397.848 1637.46 393.991C1609.83 390.823 1582.65 386.865 1556.68 382.222C1485.54 369.536 1415.32 348.418 1341.98 317.668C1310 304.259 1279.85 289.832 1251.72 276.205C1196.18 249.382 1140.77 227.633 1087.03 211.558C1007.99 187.918 934.036 175.351 854.296 172.009C808.861 170.105 760.949 170.882 715.735 174.254C677.89 177.076 642.212 183.887 608.905 190.619C600.572 192.312 591.709 194.161 582.566 196.114C580.281 196.605 577.977 197.104 575.641 197.608C537.281 205.912 493.876 215.307 438.17 215.307C437.23 215.307 436.294 215.305 435.347 215.298C397.659 215.085 359.181 212.073 321.965 209.159C307.211 208.003 291.953 206.81 277.313 205.844C248.717 203.959 223.951 203.402 201.596 204.146C120.287 206.854 51.6553 217.808 13.307 234.206L12.6503 233.724C31.6081 225.618 59.0206 218.581 91.9147 213.372C124.27 208.25 162.174 204.851 201.529 203.541C223.947 202.795 248.776 203.352 277.435 205.241C292.091 206.207 307.353 207.402 322.111 208.556C359.291 211.466 397.734 214.475 435.351 214.689C492.216 215.014 536.33 205.463 575.244 197.038C577.576 196.534 579.884 196.034 582.169 195.541C591.32 193.587 600.187 191.737 608.528 190.045C641.89 183.3 677.635 176.48 715.582 173.649C760.867 170.272 808.857 169.493 854.366 171.399C893.883 173.055 931.558 176.964 969.545 183.348C1008.67 189.924 1047.26 198.973 1087.53 211.019C1141.34 227.115 1196.82 248.891 1252.41 275.741C1280.54 289.363 1310.66 303.782 1342.62 317.177C1415.86 347.886 1485.98 368.972 1557 381.639C1582.93 386.273 1610.08 390.226 1637.67 393.39C1671.75 397.242 1705.07 399.827 1736.7 401.068C1789.94 403.159 1846.57 404.234 1902.29 392.661C1931.6 386.57 1956.41 377.117 1978.13 363.762C2016.81 339.972 2040.89 307.522 2062.14 278.891C2072.83 264.485 2082.92 250.879 2094.06 239.28C2098.08 235.095 2102.13 230.77 2106.04 226.587C2118.28 213.5 2130.93 199.968 2145.91 187.33C2163.24 172.608 2182.31 160.397 2202.57 151.037C2225.85 140.287 2250.1 133.648 2274.65 131.308C2289.99 129.844 2305.6 129.611 2322.39 130.588C2369.28 133.325 2416.92 146.845 2461.42 161.051C2502.51 174.166 2543.07 191.592 2578.73 211.444C2618.4 233.462 2654.94 259.673 2687.35 289.345C2716.34 315.88 2741.92 345.061 2763.39 376.083L2762.39 376.301C2716.74 310.362 2652.97 253.503 2577.97 211.871C2542.38 192.057 2501.9 174.664 2460.89 161.575C2416.5 147.402 2368.98 133.915 2322.28 131.189C2305.6 130.216 2290.08 130.45 2274.83 131.903C2229.52 136.224 2184.06 156.025 2146.82 187.661C2131.87 200.272 2119.23 213.791 2107.01 226.864C2103.09 231.049 2099.05 235.375 2095.02 239.564C2083.91 251.136 2073.82 264.73 2063.14 279.12C2041.86 307.795 2017.74 340.298 1978.93 364.167C1957.09 377.595 1932.15 387.101 1902.66 393.227C1877.08 398.541 1849.48 401.619 1818.29 402.629C1809.85 402.915 1801.45 403.027 1793.18 403.027Z" fill="#ECC94B"/>
<path d="M1832.76 405.412C1832.48 405.412 1832.19 405.412 1831.91 405.412C1803.57 405.372 1775.75 403.43 1749.68 401.445C1718.04 399.036 1684.69 395.248 1650.55 390.189C1623.04 386.071 1596.04 381.203 1570.28 375.726C1501.99 361.226 1434.72 338.832 1358.57 305.246C1331.14 293.154 1304.16 280.133 1278.05 267.543C1274.79 265.967 1271.52 264.393 1268.25 262.819C1212.43 236.002 1155.1 215.321 1097.86 201.351C1019.49 182.223 940.441 174.343 856.21 177.259C810.025 178.86 762.156 183.234 717.78 189.908C682.766 195.176 651.567 203.627 614.414 214.128C606.884 216.265 598.842 218.572 589.113 221.39L588.571 221.548C569.801 227.021 548.527 233.222 524.666 237.937C497.261 243.353 470.675 245.959 443.412 245.928C400.899 245.869 357.513 241.44 315.559 237.154C305.28 236.104 294.647 235.018 284.383 234.037C254.95 231.225 230.034 229.806 208.214 229.698C127.868 229.301 56.2913 235.967 11.84 247.982L11.3287 247.388C33.1022 241.501 62.4729 236.724 96.2636 233.572C130.117 230.413 168.835 228.846 208.226 229.039C230.109 229.147 255.087 230.569 284.584 233.387C294.855 234.369 305.488 235.454 315.771 236.504C357.675 240.784 401.005 245.208 443.416 245.268C443.604 245.268 443.797 245.268 443.986 245.268C504.65 245.268 550.867 231.796 588.028 220.963L588.574 220.804C598.307 217.984 606.349 215.677 613.883 213.54C651.099 203.022 682.353 194.555 717.477 189.272C761.928 182.584 809.875 178.204 856.14 176.601C897.359 175.175 936.238 176.262 975.007 179.93C1016.78 183.881 1057.13 190.69 1098.33 200.748C1155.68 214.744 1213.11 235.459 1269.02 262.319C1272.29 263.893 1275.56 265.47 1278.82 267.046C1304.92 279.631 1331.9 292.647 1359.3 304.731C1435.35 338.275 1502.52 360.638 1570.7 375.114C1596.42 380.585 1623.38 385.443 1650.85 389.557C1684.95 394.61 1718.25 398.391 1749.83 400.795C1806.41 405.106 1861.8 408.095 1917.36 397.493C1947.51 391.739 1972.49 382.227 1993.71 368.411C2032.05 343.455 2053 308.874 2071.48 278.361C2080.13 264.076 2088.3 250.582 2097.52 239.243C2101.07 234.88 2104.63 230.367 2108.07 226.002C2118.83 212.353 2129.95 198.243 2143.59 184.938C2159.29 169.508 2177.04 156.459 2196.33 146.152C2218.33 134.406 2241.76 126.586 2265.99 122.915C2281.02 120.638 2296.35 119.529 2312.83 119.529C2313.19 119.529 2313.54 119.529 2313.91 119.531C2365.13 119.681 2417.84 132.708 2458.05 144.041C2500.87 156.115 2542.84 172.925 2579.42 192.653C2620.17 214.57 2657 241.039 2688.9 271.327C2717.52 298.507 2741.83 328.373 2761.13 360.099L2760.02 360.313C2731.29 313.107 2676.49 245.785 2578.6 193.131C2542.11 173.447 2500.24 156.677 2457.52 144.631C2417.43 133.329 2364.88 120.339 2313.9 120.192C2297.11 120.137 2281.55 121.242 2266.3 123.553C2221.41 130.357 2178.19 152.274 2144.61 185.266C2131 198.54 2119.89 212.635 2109.14 226.268C2105.7 230.635 2102.14 235.15 2098.59 239.516C2089.4 250.826 2081.24 264.303 2072.6 278.572C2054.08 309.14 2033.1 343.787 1994.61 368.841C1973.25 382.749 1948.1 392.325 1917.74 398.116C1892.01 403.023 1864.2 405.412 1832.76 405.412Z" fill="#ECC94B"/>
<path d="M1864.23 408.511C1858.13 408.511 1851.89 408.4 1845.51 408.18C1817.56 407.218 1790.39 404.332 1762.71 401.206C1730.62 397.583 1698.21 392.736 1663.62 386.387C1636.26 381.319 1609.43 375.548 1583.88 369.227C1519.04 353.219 1454.67 329.654 1375.16 292.821C1355.41 283.674 1335.67 274.081 1316.58 264.802C1306.18 259.752 1295.44 254.528 1284.79 249.428C1228.3 222.431 1169.06 202.821 1108.7 191.141C1028.96 175.707 947.001 172.88 858.138 182.5C811.189 187.583 763.364 195.554 719.837 205.551C684.87 213.581 654.41 224.859 622.161 236.799L619.931 237.624C614.894 239.495 609.802 241.393 604.646 243.313C601.677 244.42 598.689 245.534 595.673 246.656C576.868 253.694 556.558 261.036 533.266 266.686C506.224 273.246 479.476 276.474 451.485 276.553C404.887 276.681 357.356 270.618 311.395 264.749C304.836 263.911 298.049 263.045 291.462 262.224C260.581 258.372 236.236 256.155 214.836 255.244C135.867 251.882 61.3408 254.251 10.3618 261.744L10.0354 261.053C61.1481 253.54 135.827 251.163 214.935 254.531C236.393 255.444 260.801 257.668 291.741 261.526C298.332 262.35 305.119 263.215 311.682 264.054C357.081 269.85 404.01 275.84 449.991 275.84C450.486 275.84 450.982 275.84 451.481 275.837C510.954 275.67 553.29 261.656 594.969 246.062C597.985 244.939 600.974 243.825 603.942 242.718C609.098 240.796 614.186 238.901 619.228 237.028L621.457 236.202C653.761 224.242 684.273 212.945 719.353 204.888C762.959 194.872 810.867 186.888 857.898 181.796C946.985 172.152 1029.16 174.987 1109.12 190.463C1169.63 202.174 1229.01 221.827 1285.63 248.884C1296.27 253.987 1307.02 259.208 1317.41 264.261C1336.5 273.537 1356.23 283.128 1375.97 292.268C1455.39 329.059 1519.67 352.592 1584.39 368.574C1609.91 374.883 1636.7 380.648 1664.03 385.707C1698.56 392.047 1730.92 396.887 1762.96 400.504C1811.61 405.997 1872.15 412.834 1932.43 402.303C1963.43 396.89 1988.57 387.318 2009.3 373.04C2047.27 346.888 2064.87 310.106 2080.41 277.656C2087.16 263.558 2093.53 250.242 2100.97 239.192C2103.87 234.886 2106.78 230.432 2109.58 226.124C2119.01 211.677 2128.75 196.739 2141.26 182.531C2155.38 166.384 2171.8 152.496 2190.08 141.251C2210.8 128.51 2233.43 119.513 2257.34 114.509C2272.68 111.298 2288.4 109.319 2305.41 108.458C2328.19 107.304 2352.43 108.537 2379.53 112.218C2402.45 115.335 2427.03 120.173 2454.66 127.013C2499.23 138.044 2542.61 154.239 2580.1 173.847C2621.93 195.66 2659.05 222.391 2690.44 253.293C2718.7 281.121 2741.72 311.671 2758.87 344.099L2757.64 344.302C2721.44 275.84 2658.08 215.49 2579.23 174.371C2541.84 154.816 2498.59 138.667 2454.15 127.669C2394.6 112.933 2347.38 107.053 2305.53 109.171C2288.63 110.025 2273.02 111.991 2257.78 115.179C2200.9 127.081 2163.64 158.547 2142.41 182.846C2129.93 197.018 2120.19 211.939 2110.78 226.369C2107.97 230.679 2105.07 235.135 2102.17 239.443C2094.75 250.46 2088.39 263.761 2081.65 277.841C2066.08 310.361 2048.43 347.221 2010.29 373.491C1989.4 387.882 1964.05 397.53 1932.81 402.987C1911.63 406.686 1889.05 408.511 1864.23 408.511Z" fill="#ECC94B"/>
<path d="M1891.5 412.064C1849.92 412.064 1809.94 406.083 1775.73 400.967C1743.55 396.155 1711.16 390.141 1676.7 382.583C1649.49 376.574 1622.83 369.895 1597.47 362.729C1521.43 341.275 1453.65 310.48 1391.73 280.397C1379.09 274.255 1366.32 267.924 1353.97 261.802C1336.83 253.3 1319.1 244.51 1301.33 236.04C1243.99 208.776 1182.83 190.234 1119.55 180.929C1037.69 168.894 952.812 171.12 860.064 187.735C812.309 196.29 764.531 207.858 721.893 221.189C689.007 231.47 661.181 244.449 631.724 258.19C629.636 259.163 627.544 260.14 625.44 261.117L624.3 261.65C617.139 264.994 609.734 268.45 602.228 271.919C584.241 280.269 564.434 288.905 541.524 295.502C514.929 303.161 488.118 306.98 459.55 307.178C409.405 307.528 358.296 299.637 308.874 292.004C305.41 291.47 301.961 290.937 298.528 290.411C265.937 285.405 242.162 282.437 221.446 280.786C144.458 274.653 66.9754 272.725 8.86306 275.497L8.74512 274.728C66.9518 271.95 144.549 273.881 221.639 280.023C242.413 281.678 266.239 284.652 298.89 289.667C302.323 290.193 305.771 290.725 309.24 291.263C358.567 298.879 409.578 306.751 459.53 306.408C521.571 305.976 565.263 288.073 601.347 271.325C608.854 267.856 616.258 264.4 623.419 261.058L624.559 260.525C626.663 259.546 628.755 258.57 630.843 257.597C660.352 243.832 688.224 230.831 721.22 220.516C763.938 207.16 811.806 195.572 859.643 187.002C903.615 179.126 944.916 174.578 985.903 173.099C1031.62 171.45 1076.71 173.834 1119.9 180.185C1183.38 189.518 1244.72 208.113 1302.22 235.452C1320 243.927 1337.73 252.719 1354.88 261.223C1367.23 267.345 1379.99 273.674 1392.63 279.813C1454.49 309.864 1522.19 340.626 1598.08 362.04C1623.41 369.195 1650.03 375.865 1677.19 381.866C1711.61 389.412 1743.95 395.417 1776.08 400.223C1825.42 407.602 1886.82 416.786 1947.49 407.122C1979.32 402.05 2004.63 392.419 2024.86 377.679C2062.44 350.296 2076.5 311.251 2088.91 276.8C2093.89 262.958 2098.6 249.884 2104.41 239.148C2106.55 235.177 2108.71 231.073 2110.79 227.104C2118.95 211.58 2127.38 195.526 2138.92 180.132C2151.46 163.254 2166.57 148.523 2183.81 136.351C2203.26 122.617 2225.07 112.443 2248.65 106.109C2263.96 101.997 2279.74 99.1465 2296.89 97.392C2320 95.03 2345.64 95.1092 2373.1 97.6276C2397.15 99.8333 2423.44 103.992 2451.25 109.99C2497.56 119.978 2542.34 135.557 2580.76 155.043C2623.68 176.755 2661.09 203.744 2691.96 235.262C2719.85 263.737 2741.59 294.974 2756.59 328.104L2755.25 328.294C2723.48 258.093 2661.19 196.767 2579.84 155.615C2541.55 136.193 2496.91 120.665 2450.76 110.71C2390.94 97.8081 2340.69 93.6982 2297.14 98.1515C2280.12 99.8927 2264.45 102.724 2249.25 106.805C2193.15 121.873 2158.98 155.158 2140.19 180.429C2128.68 195.783 2120.26 211.816 2112.11 227.32C2110.03 231.289 2107.87 235.395 2105.72 239.37C2099.94 250.071 2095.24 263.127 2090.26 276.952C2084.29 293.526 2077.52 312.31 2067.71 329.92C2056.45 350.098 2042.8 365.873 2025.96 378.148C2016.22 385.245 2005.02 391.285 1992.69 396.102C1979.42 401.282 1964.34 405.24 1947.86 407.864C1929.01 410.868 1910.09 412.064 1891.5 412.064Z" fill="#ECC94B"/>
<path d="M1916.08 415.962C1902.33 415.962 1887.93 415.214 1872.71 413.719C1842.75 410.776 1814.06 405.435 1788.76 400.726C1756.86 394.789 1723.55 387.404 1689.77 378.777C1662.73 371.834 1636.25 364.248 1611.06 356.226C1538.75 333.229 1476.46 302.65 1408.31 267.97C1402.26 264.888 1396.11 261.744 1390.16 258.702C1366.74 246.729 1342.53 234.348 1317.86 222.651C1259.58 195.068 1196.5 177.596 1130.4 170.718C1047.02 162.043 956.71 169.528 861.991 192.968C813.387 204.996 765.652 220.159 723.95 236.821C692.55 249.366 666.703 264.157 639.337 279.817C636.557 281.409 633.765 283.005 630.957 284.607C623.97 288.601 616.443 292.887 608.787 297.177C592.731 306.205 573.164 316.492 549.786 324.313C523.616 333.07 496.738 337.484 467.623 337.803C414.324 338.391 360.069 328.511 307.6 318.957L305.602 318.594C279.912 313.918 252.736 309.194 228.064 306.326C152.862 297.584 74.4862 291.515 7.38062 289.237L7.47105 288.414C74.6474 290.694 153.094 296.768 228.363 305.518C253.105 308.395 280.329 313.126 306.059 317.808L308.056 318.171C360.412 327.703 414.556 337.559 467.596 336.975C528.85 336.302 571.154 317.168 607.745 296.589C615.401 292.301 622.92 288.015 629.908 284.024C632.715 282.424 635.507 280.826 638.287 279.236C665.7 263.549 691.594 248.732 723.096 236.145C764.878 219.45 812.703 204.258 861.397 192.208C905.837 181.212 949.568 173.635 991.369 169.69C1039.13 165.184 1086 165.255 1130.68 169.902C1197.03 176.805 1260.33 194.339 1318.82 222.017C1343.51 233.726 1367.73 246.11 1391.16 258.09C1397.11 261.13 1403.26 264.274 1409.31 267.356C1477.39 302.003 1539.62 332.548 1611.79 355.506C1636.95 363.515 1663.39 371.09 1690.39 378.024C1724.12 386.638 1757.38 394.012 1789.23 399.941C1839.16 409.235 1901.3 420.798 1962.57 411.938C1995.25 407.212 2020.73 397.523 2040.45 382.317C2077.61 353.666 2088.37 310.482 2097.01 275.782C2100.38 262.266 2103.56 249.5 2107.87 239.11C2109.22 235.834 2110.6 232.46 2111.92 229.195C2118.8 212.236 2125.92 194.698 2136.6 177.739C2153.09 151.347 2184.41 116.041 2239.99 97.7196C2255.34 92.6609 2271.18 88.9362 2288.4 86.3342C2333.47 79.4286 2387.12 81.6629 2447.87 92.9712C2495.92 101.915 2542.11 116.878 2581.45 136.243C2625.45 157.852 2663.15 185.1 2693.51 217.237C2707.43 231.978 2719.74 247.722 2730.09 264.031C2739.97 279.61 2748.13 295.788 2754.33 312.116L2752.89 312.287C2725.57 240.343 2664.34 178.042 2580.47 136.862C2541.28 117.569 2495.27 102.664 2447.41 93.7527C2386.94 82.495 2333.57 80.2673 2288.79 87.1289C2271.69 89.7111 2255.97 93.4071 2240.74 98.4284C2185.54 116.623 2154.4 151.747 2137.99 178.009C2127.34 194.925 2120.23 212.438 2113.36 229.376C2112.03 232.64 2110.66 236.017 2109.3 239.295C2105.01 249.65 2101.83 262.398 2098.47 275.895C2094.12 293.356 2089.2 313.146 2080.77 331.824C2071.1 353.287 2058.3 369.963 2041.64 382.801C2032.14 390.125 2021.03 396.302 2008.62 401.158C1995.25 406.39 1979.88 410.287 1962.94 412.735C1948.07 414.888 1932.54 415.962 1916.08 415.962Z" fill="#ECC94B"/>
<path d="M1938.73 420.079C1922.25 420.079 1904.87 418.884 1886.31 416.487C1856.24 412.606 1827.3 406.164 1801.78 400.481C1769.64 393.326 1736.35 384.743 1702.84 374.967C1675.98 367.097 1649.67 358.604 1624.65 349.722C1555.78 325.298 1496.72 293.819 1434.19 260.495C1431.09 258.846 1428 257.195 1424.9 255.544C1395.82 240.064 1365.75 224.056 1334.4 209.263C1275.1 181.33 1210.12 164.925 1141.26 160.505C1054.77 154.951 961.463 167.633 863.918 198.194C815.125 213.48 766.147 232.749 726.006 252.449C695.695 267.323 671.386 284.06 645.648 301.781C642.601 303.879 639.545 305.983 636.466 308.092C630.316 312.312 622.998 317.316 615.338 322.434C601.15 331.937 581.818 344.014 558.043 353.099C532.29 362.941 505.354 367.958 475.692 368.431C451.311 368.772 424.406 366.666 393.435 361.988C366.844 357.972 341.123 352.724 312.661 346.781C286.68 341.288 259.259 335.616 234.658 331.869C161.788 320.77 84.8162 311.051 5.88599 302.976L6.1691 302.111C85.1465 310.188 162.162 319.916 235.071 331.019C259.739 334.777 287.199 340.459 313.211 345.955C360.918 355.921 420.293 368.328 475.649 367.551C538.936 366.538 579.608 344.995 614.131 321.866C621.787 316.752 629.101 311.751 635.247 307.533C638.326 305.424 641.382 303.32 644.425 301.224C670.206 283.474 694.559 266.709 724.968 251.786C765.192 232.046 814.264 212.741 863.151 197.426C960.992 166.772 1054.62 154.057 1141.44 159.631C1174.73 161.768 1207.43 166.732 1238.62 174.384C1272.09 182.593 1304.66 194.104 1335.42 208.591C1366.8 223.4 1396.89 239.417 1425.98 254.907C1429.08 256.561 1432.18 258.21 1435.28 259.858C1497.75 293.154 1556.76 324.602 1625.49 348.98C1650.48 357.849 1676.75 366.331 1703.57 374.188C1737.03 383.948 1770.27 392.52 1802.36 399.664C1852.8 410.891 1915.57 424.863 1977.64 416.759C2011.26 412.37 2036.9 402.622 2056.02 386.962C2092.86 357.05 2099.42 311.357 2104.69 274.643C2106.58 261.512 2108.36 249.109 2111.31 239.08C2111.92 237.011 2112.53 234.93 2113.14 232.839C2118.65 213.949 2124.35 194.414 2134.27 175.351C2148.42 147.931 2176.74 110.75 2231.32 89.3352C2246.54 83.3608 2262.43 78.7643 2279.89 75.2818C2304.16 70.397 2331.2 68.101 2360.26 68.4532C2386.8 68.7746 2415.13 71.2996 2444.47 75.9554C2494.25 83.8517 2541.84 98.1979 2582.11 117.442C2627.2 138.945 2665.2 166.457 2695.04 199.211C2708.73 214.24 2720.59 230.307 2730.28 246.967C2739.56 262.923 2746.89 279.464 2752.05 296.13L2750.5 296.28C2727.99 223.655 2666.24 158.715 2581.09 118.111C2541 98.9507 2493.6 84.664 2444.04 76.7985C2382.93 67.0994 2326.35 66.8617 2280.41 76.1073C2263.09 79.5634 2247.32 84.1246 2232.22 90.0529C2178.01 111.32 2149.85 148.309 2135.77 175.593C2125.89 194.606 2120.19 214.112 2114.69 232.978C2114.08 235.069 2113.47 237.151 2112.86 239.221C2109.91 249.213 2108.14 261.6 2106.25 274.711C2100.96 311.531 2094.39 357.356 2057.32 387.46C2048.1 395.008 2037.08 401.326 2024.56 406.233C2011.09 411.511 1995.42 415.342 1978 417.618C1965.41 419.256 1952.38 420.079 1938.73 420.079Z" fill="#ECC94B"/>
<path d="M1960.01 424.365C1941.24 424.365 1921.35 422.666 1899.91 419.254C1869.59 414.426 1840.47 406.887 1814.79 400.236C1782.33 391.832 1749.06 382.047 1715.9 371.159C1689.23 362.375 1663.1 352.974 1638.23 343.219C1576.97 319.207 1524.62 289.79 1469.19 258.646C1460.13 253.554 1450.76 248.291 1441.47 243.115C1408.79 224.932 1380.89 209.939 1350.93 195.874C1290.57 167.571 1223.68 152.235 1152.12 150.289C1062.19 147.843 965.869 165.718 865.83 203.416C816.133 222.145 767.198 245.105 728.044 268.07C698.547 285.37 675.488 304.203 651.076 324.14C648.052 326.61 645.016 329.089 641.961 331.57C636.518 335.997 629.314 341.83 621.878 347.679C590.585 372.352 549.7 397.753 483.75 399.052C481.694 399.09 479.629 399.107 477.569 399.107C426.071 399.107 373.495 387.698 319.708 374.958L316.35 374.157C289.708 367.791 264.541 361.779 241.246 357.403C153.456 340.91 68.5529 326.989 4.39258 316.704L4.85268 315.804C69.0287 326.093 153.956 340.016 241.777 356.515C265.135 360.903 290.33 366.923 317.007 373.296L320.361 374.098C376.118 387.304 430.569 399.083 483.691 398.119C548.909 396.833 589.452 371.628 620.514 347.14C627.946 341.295 635.142 335.466 640.584 331.041C643.64 328.558 646.672 326.082 649.696 323.612C674.147 303.643 697.242 284.78 726.833 267.425C766.066 244.412 815.098 221.405 864.894 202.639C911.111 185.222 957.343 171.849 1002.31 162.887C1053.89 152.605 1104.33 148.052 1152.2 149.353C1224.13 151.308 1291.36 166.72 1352 195.154C1382 209.241 1409.93 224.25 1442.64 242.448C1451.94 247.624 1461.31 252.889 1470.37 257.981C1525.75 289.095 1578.05 318.483 1639.18 342.447C1664.02 352.19 1690.11 361.576 1716.74 370.347C1749.85 381.221 1783.07 390.991 1815.48 399.382C1866.36 412.557 1929.68 428.953 1992.7 421.572C2027.15 417.537 2052.95 407.732 2071.58 391.598C2107.95 360.324 2110.14 312.059 2111.9 273.278C2112.47 260.625 2113.01 248.671 2114.75 239.04L2114.79 238.82C2118.68 217.254 2122.7 194.954 2131.92 172.952C2139.91 153.76 2151.03 136.506 2164.98 121.665C2180.71 104.932 2200.1 91.2309 2222.63 80.9396C2237.7 74.0538 2253.64 68.5834 2271.36 64.2181C2319.25 52.3551 2377.93 50.5236 2441.06 58.9261C2466.46 62.3074 2491.52 67.4299 2515.55 74.1484C2539.71 80.9066 2562.33 89.1462 2582.78 98.634C2628.96 120.033 2667.25 147.806 2696.57 181.18C2722.92 211.178 2741.32 245.398 2749.78 280.137L2748.12 280.263C2730.03 205.91 2669.38 139.971 2581.71 99.3539C2540.72 80.3298 2491.94 66.6638 2440.67 59.8419C2377.9 51.4877 2319.59 53.2994 2272.04 65.0811C2254.46 69.4133 2238.65 74.8397 2223.69 81.6704C2181.64 100.886 2150.47 132.526 2133.55 173.17C2124.36 195.115 2120.34 217.384 2116.46 238.919L2116.42 239.14C2114.69 248.735 2114.14 260.671 2113.57 273.307C2111.8 312.207 2109.61 360.617 2072.98 392.111C2064 399.891 2053.06 406.345 2040.47 411.294C2026.89 416.63 2010.93 420.396 1993.04 422.494C1982.39 423.74 1971.4 424.365 1960.01 424.365Z" fill="#ECC94B"/>
<path d="M484.973 429.756C461.945 429.756 436.868 427.244 408.567 422.115C380.447 417.019 352.637 409.983 326.77 403.141C322.087 401.895 317.439 400.652 312.822 399.417C289.841 393.268 268.135 387.461 247.848 382.937C166.955 364.906 89.8498 348.7 15.2806 333.031L2.92517 330.433L3.54647 329.506L15.9019 332.104C90.4751 347.778 167.592 363.984 248.501 382.019C268.843 386.554 290.577 392.368 313.585 398.525C318.198 399.76 322.846 401.004 327.525 402.248C380.624 416.292 437.037 429.903 491.752 428.69C559.011 427.123 599.318 397.792 626.915 372.417C633.985 365.928 640.796 359.46 645.94 354.551C648.779 351.846 651.598 349.142 654.41 346.446C677.729 324.091 699.754 302.976 728.719 283.067C766.954 256.791 815.939 230.08 866.659 207.858C913.713 187.24 961.196 170.95 1007.79 159.441C1061.24 146.24 1113.45 139.389 1162.96 139.079C1237.46 138.458 1306.66 152.806 1368.6 181.721C1402.94 197.769 1433.73 215.129 1459.32 229.994C1473.24 238.084 1487.17 246.377 1500.64 254.396C1548.31 282.787 1597.6 312.142 1652.89 335.919C1677.58 346.543 1703.51 356.836 1729.93 366.511C1762.63 378.458 1795.83 389.425 1828.63 399.106C1879.89 414.238 1943.68 433.071 2007.78 426.388C2043.05 422.709 2069.02 412.847 2087.16 396.238C2123.05 363.546 2120.62 312.637 2118.67 271.732C2118.1 259.635 2117.55 248.208 2118.21 239.009C2119.68 218.27 2121.9 194.167 2129.6 170.56C2136.08 150.556 2145.88 132.459 2158.7 116.772C2173.21 99.0272 2191.81 84.1505 2213.96 72.5538C2228.64 64.8689 2245.09 58.3463 2262.86 53.1643C2288.2 45.7457 2316.65 41.0811 2347.4 39.3024C2376.2 37.636 2406.57 38.5121 2437.65 41.9044C2463.87 44.7661 2489.71 49.4726 2514.46 55.8962C2539.36 62.3593 2562.57 70.4119 2583.45 79.8292C2607.53 90.6731 2629.66 103.478 2649.24 117.891C2667.79 131.546 2684.24 146.774 2698.11 163.153C2724.07 193.793 2741.16 228.72 2747.51 264.15L2745.75 264.249C2732.1 188.164 2672.54 121.228 2582.34 80.6019C2541.03 61.9741 2489.53 48.5767 2437.31 42.8774C2372.75 35.8309 2312.71 39.692 2263.67 54.0426C2246.05 59.1828 2229.73 65.6547 2215.17 73.278C2173.42 95.1286 2145.22 127.918 2131.34 170.738C2123.66 194.282 2121.44 218.343 2119.97 239.048C2119.32 248.215 2119.86 259.624 2120.44 271.705C2121.4 291.885 2122.49 314.759 2118.84 336.872C2114.61 362.531 2104.74 382.119 2088.67 396.755C2079.92 404.764 2069.06 411.357 2056.39 416.35C2042.71 421.743 2026.46 425.448 2008.1 427.361C1998.84 428.327 1989.59 428.765 1980.39 428.765C1925.31 428.765 1871.94 413.008 1827.8 399.98C1794.96 390.283 1761.71 379.301 1728.96 367.337C1702.5 357.648 1676.55 347.339 1651.82 336.7C1596.42 312.875 1547.07 283.489 1499.35 255.072C1485.89 247.055 1471.97 238.764 1458.05 230.679C1432.49 215.831 1401.75 198.495 1367.48 182.478C1305.87 153.718 1237.07 139.453 1162.99 140.065C1046.64 140.796 938.22 177.754 867.752 208.632C817.135 230.811 768.247 257.465 730.096 283.687C701.217 303.537 679.223 324.619 655.94 346.939C653.128 349.635 650.304 352.339 647.465 355.046C642.318 359.958 635.503 366.43 628.429 372.926C616.844 383.578 598.657 399.084 574.567 410.708C562.869 416.352 550.419 420.787 537.564 423.894C523.23 427.356 507.839 429.302 491.827 429.674C489.558 429.729 487.273 429.756 484.973 429.756Z" fill="#ECC94B"/>
<path d="M492.366 460.404C469.311 460.404 444.285 457.698 416.134 452.177C386.987 446.462 358.171 438.428 333.83 431.319C326.35 429.131 318.887 426.912 311.667 424.766C291.486 418.767 272.422 413.099 254.447 408.472C189.898 391.851 125.769 375.625 63.7477 359.932C43.2326 354.741 22.0215 349.374 1.46313 344.161L2.23386 343.208C22.7922 348.421 44.0033 353.788 64.5184 358.979C126.539 374.672 190.676 390.9 255.23 407.523C273.252 412.163 292.339 417.836 312.544 423.844C319.76 425.99 327.223 428.207 334.695 430.395C385.178 445.131 443.735 460.729 499.806 459.261C568.65 457.416 607.317 425.389 633.318 397.694C639.983 390.599 646.428 383.475 651.296 378.062C653.797 375.284 656.282 372.508 658.764 369.739C681.068 344.831 702.134 321.305 730.612 298.712C767.651 269.329 816.597 238.917 868.425 213.08C940.603 177.253 1052.16 133.552 1173.73 128.812C1251.04 125.717 1322.19 139 1385.21 168.296C1413.52 181.464 1441.52 196.653 1476 217.551C1493.42 228.111 1510.71 239.056 1527.43 249.638C1570.94 277.17 1615.91 305.64 1666.6 329.404C1691.15 340.919 1716.9 352.117 1743.12 362.688C1774.87 375.476 1808.06 387.64 1841.77 398.845C1893.55 415.952 1957.99 437.245 2022.85 431.218C2058.41 427.982 2085.29 417.779 2102.73 400.895C2138.12 366.723 2130.53 310.818 2124.98 269.998C2123.42 258.542 2121.95 247.722 2121.67 238.994C2121.02 219.596 2121.08 194.018 2127.28 168.186C2137.98 123.421 2164.23 88.4285 2205.3 64.185C2219.69 55.6438 2236.2 48.223 2254.35 42.1275C2280.18 33.4454 2309.32 27.6052 2340.97 24.7721C2370.79 22.104 2402.17 22.1458 2434.25 24.8975C2461.32 27.2706 2487.93 31.572 2513.36 37.6786C2539.03 43.8467 2562.84 51.7056 2584.13 61.0371C2608.74 71.8193 2631.23 84.6686 2650.96 99.2305C2669.66 113.031 2686.04 128.475 2699.65 145.14C2725.22 176.425 2740.98 212.056 2745.25 248.18L2743.38 248.249C2734.2 170.427 2675.73 102.491 2582.98 61.8626C2540.93 43.4307 2488.01 30.6695 2433.97 25.9322C2367.35 20.2197 2305.57 26.1303 2255.32 43.0256C2237.31 49.0705 2220.94 56.4319 2206.66 64.9048C2165.87 88.9876 2139.78 123.782 2129.13 168.326C2122.95 194.089 2122.9 219.616 2123.54 238.977C2123.83 247.674 2125.3 258.48 2126.85 269.921C2129.72 291.021 2132.96 314.938 2131.11 338.288C2128.94 365.477 2120.19 386.128 2104.35 401.421C2095.83 409.669 2085.06 416.405 2072.32 421.442C2058.51 426.904 2041.97 430.54 2023.16 432.253C1993.98 434.963 1962.58 432.528 1927.15 424.808C1896.36 418.096 1866.85 408.348 1840.83 399.75C1807.07 388.53 1773.83 376.347 1742.03 363.542C1715.77 352.956 1689.99 341.742 1665.4 330.211C1614.61 306.399 1569.58 277.899 1526.04 250.338C1509.32 239.758 1492.04 228.82 1474.63 218.268C1440.21 197.408 1412.26 182.248 1384.02 169.11C1321.37 139.982 1250.67 126.778 1173.85 129.853C1052.81 134.575 941.622 178.142 869.66 213.861C817.934 239.646 769.09 269.994 732.13 299.316C703.73 321.844 682.696 345.337 660.427 370.208C657.946 372.979 655.461 375.755 652.96 378.533C648.087 383.951 641.638 391.081 634.965 398.182C608.736 426.124 569.68 458.438 499.889 460.307C497.408 460.371 494.895 460.404 492.366 460.404Z" fill="#ECC94B"/>
<path d="M499.908 491.053C436.912 491.053 370.813 469.394 312.217 450.191C294.211 444.292 277.203 438.718 261.041 434.005L0 357.889L0.908396 356.913L261.95 433.029C278.155 437.754 295.182 443.334 313.212 449.242C374.073 469.187 443.058 491.792 507.859 489.833C578.221 487.709 615.287 452.985 639.719 422.974C647.71 413.158 655.425 403.17 662.888 393.511C683.301 367.095 704.406 339.778 732.495 314.355C754.799 294.168 782.507 272.998 812.621 253.135C845.656 231.344 881.028 211.351 917.744 193.714C958.228 174.27 999.392 158.184 1040.09 145.908C1085.1 132.33 1129.45 123.465 1171.9 119.557C1256.94 111.732 1334.29 123.608 1401.79 154.86C1457.89 180.83 1505.56 212.943 1551.67 244C1591.8 271.032 1633.3 298.983 1680.29 322.876C1734.57 350.472 1793.32 375.94 1854.9 398.567C1906.79 417.633 1971.37 441.364 2037.92 436.03C2094.13 431.526 2126.63 410.472 2137.27 371.662C2146.33 338.651 2137.71 299.491 2130.8 268.027C2128.44 257.305 2126.21 247.176 2125.12 238.963C2119.09 193.686 2122.93 156.309 2136.87 124.7C2145.57 104.978 2158.41 87.3979 2175.02 72.4485C2193.58 55.7491 2217.4 41.8277 2245.83 31.0719C2270.43 21.7668 2298.15 15.0087 2328.23 10.9846C2356.86 7.15427 2387 5.87089 2417.83 7.16969C2478.44 9.72325 2537.74 22.1741 2584.79 42.2262C2609.94 52.9445 2632.77 65.84 2652.65 80.5517C2671.5 94.495 2687.83 110.158 2701.18 127.108C2726.34 159.039 2740.78 195.376 2742.96 232.189L2740.99 232.227C2736.36 153.832 2677.52 83.1316 2583.59 43.1045C2483.85 0.596454 2342.26 -4.08141 2246.93 31.9855C2152.49 67.7134 2113.28 135.389 2127.07 238.881C2128.16 247.068 2130.39 257.184 2132.74 267.893C2139.68 299.425 2148.31 338.669 2139.21 371.83C2134.26 389.892 2124.3 404.408 2109.62 414.976C2101.36 420.918 2091.41 425.774 2080.03 429.406C2067.93 433.272 2053.85 435.867 2038.2 437.122C2031.8 437.635 2025.29 437.892 2018.67 437.892C1994.56 437.892 1968.87 434.478 1940.72 427.561C1909.01 419.769 1878.41 408.524 1853.82 399.49C1792.15 376.829 1733.32 351.329 1678.97 323.693C1631.87 299.749 1590.33 271.765 1550.15 244.704C1504.1 213.687 1456.48 181.613 1400.53 155.71C1333.48 124.671 1256.67 112.872 1172.21 120.645C1001.36 136.367 825.373 232.381 734.154 314.936C706.14 340.289 685.063 367.568 664.678 393.949C657.21 403.613 649.491 413.607 641.493 423.432C625.272 443.356 609.251 457.623 591.076 468.326C579.731 475.005 567.423 480.27 554.493 483.975C540.116 488.094 524.458 490.436 507.95 490.936C505.284 491.013 502.598 491.053 499.908 491.053Z" fill="#ECC94B"/>
</g>
</svg>
