<svg width="191" height="34" viewBox="0 0 191 34" fill="none" xmlns="http://www.w3.org/2000/svg">
<g clip-path="url(#clip0_9_314)">
<path d="M2.5 4.86525V11.6182C2.5 13.6749 5.00611 14.7719 6.53763 13.3322L13.8471 6.5792C15.4483 5.1052 14.404 2.5 12.2112 2.5H4.90169C3.57902 2.5 2.5 3.56265 2.5 4.86525Z" fill="white"/>
<path d="M37.0983 2.5H29.7888C27.6308 2.5 26.5517 5.1052 28.1529 6.5792L35.4624 13.3322C36.9939 14.7376 39.5 13.6749 39.5 11.6182V4.86525C39.5 3.56265 38.421 2.5 37.0983 2.5Z" fill="white"/>
<path d="M22.6533 18.9884L35.4624 30.8489C36.9939 32.2543 39.5 31.1917 39.5 29.1349V22.3134C39.5 21.6621 39.2215 21.0451 38.7342 20.5995L22.6533 5.68814C21.7135 4.83117 20.2865 4.83117 19.3467 5.68814L3.26576 20.5995C2.77846 21.0451 2.5 21.6621 2.5 22.3134V29.1349C2.5 31.1917 5.00611 32.2886 6.53763 30.8489L19.3467 18.9884C20.2865 18.1314 21.7135 18.1314 22.6533 18.9884Z" fill="white"/>
</g>
<path d="M69.2372 13.7656H64.8821C64.8026 13.2022 64.6402 12.7017 64.3949 12.2642C64.1496 11.8201 63.8348 11.4422 63.4503 11.1307C63.0658 10.8191 62.6217 10.5805 62.1179 10.4148C61.6207 10.2491 61.0805 10.1662 60.4972 10.1662C59.4432 10.1662 58.5251 10.428 57.7429 10.9517C56.9607 11.4687 56.3542 12.2244 55.9233 13.2188C55.4924 14.2064 55.277 15.4062 55.277 16.8182C55.277 18.2699 55.4924 19.4896 55.9233 20.4773C56.3608 21.465 56.9706 22.2107 57.7528 22.7145C58.535 23.2183 59.4399 23.4702 60.4673 23.4702C61.044 23.4702 61.5777 23.3939 62.0682 23.2415C62.5653 23.089 63.0062 22.867 63.3906 22.5753C63.7751 22.277 64.0933 21.9157 64.3452 21.4915C64.6037 21.0672 64.7827 20.5833 64.8821 20.0398L69.2372 20.0597C69.1245 20.9943 68.8428 21.8958 68.392 22.7642C67.9479 23.6259 67.348 24.3982 66.5923 25.081C65.8433 25.7571 64.9484 26.294 63.9077 26.6918C62.8736 27.0829 61.7036 27.2784 60.3977 27.2784C58.5814 27.2784 56.9574 26.8674 55.5256 26.0455C54.1004 25.2235 52.9735 24.0336 52.1449 22.4759C51.3229 20.9181 50.9119 19.0322 50.9119 16.8182C50.9119 14.5975 51.3295 12.7083 52.1648 11.1506C53 9.5928 54.1335 8.40625 55.5653 7.59091C56.9972 6.76894 58.608 6.35795 60.3977 6.35795C61.5777 6.35795 62.6714 6.52367 63.679 6.85511C64.6932 7.18655 65.5914 7.67045 66.3736 8.30682C67.1558 8.93655 67.7921 9.70881 68.2827 10.6236C68.7798 11.5384 69.098 12.5857 69.2372 13.7656ZM76.4808 6.63636V27H72.245V6.63636H76.4808ZM79.8739 27V11.7273H84.1097V27H79.8739ZM82.0018 9.75852C81.372 9.75852 80.8318 9.54972 80.381 9.1321C79.9369 8.70786 79.7148 8.20076 79.7148 7.61079C79.7148 7.02746 79.9369 6.52699 80.381 6.10938C80.8318 5.68513 81.372 5.47301 82.0018 5.47301C82.6315 5.47301 83.1684 5.68513 83.6126 6.10938C84.0633 6.52699 84.2887 7.02746 84.2887 7.61079C84.2887 8.20076 84.0633 8.70786 83.6126 9.1321C83.1684 9.54972 82.6315 9.75852 82.0018 9.75852ZM94.4631 27.2983C92.892 27.2983 91.5398 26.9801 90.4062 26.3438C89.2794 25.7008 88.411 24.7926 87.8011 23.6193C87.1913 22.4394 86.8864 21.044 86.8864 19.4332C86.8864 17.8622 87.1913 16.4834 87.8011 15.2969C88.411 14.1103 89.2694 13.1856 90.3764 12.5227C91.4901 11.8598 92.7959 11.5284 94.294 11.5284C95.3016 11.5284 96.2396 11.6908 97.108 12.0156C97.983 12.3338 98.7453 12.8144 99.3949 13.4574C100.051 14.1004 100.562 14.9091 100.926 15.8835C101.291 16.8513 101.473 17.9848 101.473 19.2841V20.4474H88.5767V17.8224H97.4858C97.4858 17.2126 97.3532 16.6723 97.0881 16.2017C96.8229 15.7311 96.455 15.3632 95.9844 15.098C95.5204 14.8262 94.9801 14.6903 94.3636 14.6903C93.7206 14.6903 93.1506 14.8395 92.6534 15.1378C92.1629 15.4295 91.7784 15.8239 91.5 16.321C91.2216 16.8116 91.0791 17.3584 91.0724 17.9616V20.4574C91.0724 21.2131 91.2116 21.866 91.4901 22.4162C91.7751 22.9664 92.1761 23.3906 92.6932 23.6889C93.2102 23.9872 93.8234 24.1364 94.5327 24.1364C95.0033 24.1364 95.4342 24.0701 95.8253 23.9375C96.2164 23.8049 96.5511 23.6061 96.8295 23.3409C97.108 23.0758 97.3201 22.7509 97.4659 22.3665L101.384 22.625C101.185 23.5663 100.777 24.3883 100.161 25.0909C99.5507 25.7869 98.7618 26.3305 97.794 26.7216C96.8329 27.1061 95.7225 27.2983 94.4631 27.2983ZM108.473 18.1705V27H104.237V11.7273H108.274V14.4219H108.453C108.791 13.5336 109.358 12.831 110.153 12.3139C110.949 11.7902 111.913 11.5284 113.047 11.5284C114.107 11.5284 115.032 11.7604 115.821 12.2244C116.61 12.6884 117.223 13.3513 117.661 14.2131C118.098 15.0682 118.317 16.089 118.317 17.2756V27H114.081V18.0312C114.088 17.0966 113.849 16.3674 113.365 15.8438C112.881 15.3134 112.215 15.0483 111.366 15.0483C110.796 15.0483 110.293 15.1709 109.855 15.4162C109.424 15.6615 109.086 16.0194 108.841 16.4901C108.602 16.9541 108.48 17.5142 108.473 18.1705ZM129.779 11.7273V14.9091H120.581V11.7273H129.779ZM122.669 8.06818H126.905V22.3068C126.905 22.6979 126.965 23.0028 127.084 23.2216C127.203 23.4337 127.369 23.5829 127.581 23.669C127.8 23.7552 128.052 23.7983 128.337 23.7983C128.536 23.7983 128.735 23.7817 128.934 23.7486C129.132 23.7088 129.285 23.679 129.391 23.6591L130.057 26.8111C129.845 26.8774 129.547 26.9536 129.162 27.0398C128.778 27.1326 128.31 27.1889 127.76 27.2088C126.739 27.2486 125.845 27.1127 125.076 26.8011C124.313 26.4896 123.72 26.0057 123.296 25.3494C122.872 24.6932 122.663 23.8646 122.669 22.8636V8.06818ZM132.946 27V6.63636H137.251V23.4503H145.981V27H132.946ZM148.753 27V11.7273H152.989V27H148.753ZM150.881 9.75852C150.251 9.75852 149.711 9.54972 149.26 9.1321C148.816 8.70786 148.594 8.20076 148.594 7.61079C148.594 7.02746 148.816 6.52699 149.26 6.10938C149.711 5.68513 150.251 5.47301 150.881 5.47301C151.51 5.47301 152.047 5.68513 152.491 6.10938C152.942 6.52699 153.168 7.02746 153.168 7.61079C153.168 8.20076 152.942 8.70786 152.491 9.1321C152.047 9.54972 151.51 9.75852 150.881 9.75852ZM160.618 18.1705V27H156.382V11.7273H160.419V14.4219H160.598C160.936 13.5336 161.502 12.831 162.298 12.3139C163.093 11.7902 164.058 11.5284 165.191 11.5284C166.252 11.5284 167.177 11.7604 167.966 12.2244C168.754 12.6884 169.368 13.3513 169.805 14.2131C170.243 15.0682 170.461 16.089 170.461 17.2756V27H166.225V18.0312C166.232 17.0966 165.993 16.3674 165.51 15.8438C165.026 15.3134 164.359 15.0483 163.511 15.0483C162.941 15.0483 162.437 15.1709 162 15.4162C161.569 15.6615 161.231 16.0194 160.985 16.4901C160.747 16.9541 160.624 17.5142 160.618 18.1705ZM177.638 22.6051L177.648 17.5241H178.264L183.156 11.7273H188.018L181.446 19.4034H180.442L177.638 22.6051ZM173.8 27V6.63636H178.036V27H173.8ZM183.345 27L178.851 20.348L181.675 17.3551L188.307 27H183.345Z" fill="white"/>
<defs>
<clipPath id="clip0_9_314">
<rect width="37" height="29" fill="white" transform="translate(2.5 2.5)"/>
</clipPath>
</defs>
</svg>
