<svg width="1230" height="720" viewBox="0 0 1230 720" fill="none" xmlns="http://www.w3.org/2000/svg">
<g clip-path="url(#clip0_1_41)">
<path d="M902.431 0.416168H0.384743V471.204H902.431V0.416168Z" fill="#E6E6E6"/>
<path d="M876.637 59.4645H26.1789V443.352H876.637V59.4645Z" fill="white"/>
<path d="M902.047 0H0V31.2293H902.047V0Z" fill="#2B6CB0"/>
<path d="M28.4791 21.7556C32.4021 21.7556 35.5824 19.1639 35.5824 15.967C35.5824 12.77 32.4021 10.1783 28.4791 10.1783C24.556 10.1783 21.3757 12.77 21.3757 15.967C21.3757 19.1639 24.556 21.7556 28.4791 21.7556Z" fill="white"/>
<path d="M55.4387 21.7556C59.3617 21.7556 62.542 19.1639 62.542 15.967C62.542 12.77 59.3617 10.1783 55.4387 10.1783C51.5156 10.1783 48.3353 12.77 48.3353 15.967C48.3353 19.1639 51.5156 21.7556 55.4387 21.7556Z" fill="white"/>
<path d="M82.3983 21.7556C86.3213 21.7556 89.5016 19.1639 89.5016 15.967C89.5016 12.77 86.3213 10.1783 82.3983 10.1783C78.4752 10.1783 75.2949 12.77 75.2949 15.967C75.2949 19.1639 78.4752 21.7556 82.3983 21.7556Z" fill="white"/>
<path d="M297.155 91.0403H130.818V238.102H297.155V91.0403Z" fill="#E6E6E6"/>
<path d="M534.575 91.0403H368.238V238.102H534.575V91.0403Z" fill="#E6E6E6"/>
<path d="M771.994 91.0403H605.657V238.102H771.994V91.0403Z" fill="#E6E6E6"/>
<path d="M297.155 264.72H130.818V411.782H297.155V264.72Z" fill="#E6E6E6"/>
<path d="M534.575 264.72H368.238V411.782H534.575V264.72Z" fill="#E6E6E6"/>
<path d="M771.994 264.72H605.657V411.782H771.994V264.72Z" fill="#E6E6E6"/>
<path d="M408.442 302.516L438.834 292.724L442.368 341.682C442.368 341.682 448.728 356.657 446.608 362.417C446.608 362.417 448.022 372.209 444.487 372.784C440.953 373.36 431.056 374.513 430.356 373.936C429.657 373.359 429.65 371.632 429.65 371.632C429.65 371.632 422.581 375.663 421.875 380.271C421.875 380.271 392.19 387.758 391.483 380.847C390.777 373.935 406.325 368.175 406.325 368.175L418.341 353.2L408.442 302.516Z" fill="white"/>
<path d="M472.762 302.516L503.15 292.724L506.684 341.682C506.684 341.682 513.044 356.657 510.924 362.417C510.924 362.417 512.338 372.209 508.803 372.784C505.269 373.36 495.372 374.513 494.672 373.936C493.973 373.359 493.966 371.632 493.966 371.632C493.966 371.632 486.897 375.663 486.191 380.271C486.191 380.271 456.506 387.758 455.799 380.847C455.093 373.935 470.641 368.175 470.641 368.175L482.657 353.2L472.762 302.516Z" fill="white"/>
<path d="M475.731 113.458C475.731 113.458 469.26 128.194 476.758 134.839L470.507 152.344C470.507 152.344 492.716 206.641 486.371 214.225C486.371 214.225 462.681 223.878 415.296 210.778L434.544 149.93L431.795 124.247L435.602 112.18L444.062 111.496C444.062 111.496 438.986 127.009 448.293 129.423C457.6 131.837 466.679 111.884 466.679 111.884L475.731 113.458Z" fill="#3F3D56"/>
<path d="M176.878 208.579L185.045 211.302L224.021 169.557L236.27 218.562L244.437 217.352C249.675 175.103 253.951 132.01 248.706 111.628L218.453 110.569L204.719 146.269L198.037 170.469L176.878 208.579Z" fill="white"/>
<path d="M672.525 111.294C672.525 111.294 661.38 123.921 661.924 129.016C662.469 134.111 669.535 217.182 669.535 217.182L686.118 217.847L681.221 158.036L685.298 141.865L695.356 217.182L715.744 217.625L697.532 119.935L693.998 111.295L672.525 111.294Z" fill="white"/>
<path d="M735.517 314.708C732.557 311.814 727.47 310.249 722.586 309.403C722.726 309.042 707.73 306.517 707.475 307.036L701.822 303.366L684.449 310.717L674.687 305.301L670.152 306.612C670.337 305.96 656.076 307.974 656.076 307.974C653.352 308.054 649.872 308.193 645.977 308.437C632.337 309.292 631.286 338.081 631.286 338.081C637.562 335.989 644.254 334.847 651.032 334.712L654.719 369.145C673.681 367.82 693.568 369.362 714.181 373.136L723.848 346.068L746.358 338.934C746.358 338.934 742.512 321.547 735.517 314.708Z" fill="#3F3D56"/>
<path d="M252.458 298.311C250.02 295.927 245.829 294.637 241.804 293.94C241.924 293.642 229.563 291.562 229.352 291.991L224.693 288.967L210.381 295.024L202.338 290.562L198.602 291.643C198.755 291.106 187.003 292.764 187.003 292.764C184.765 292.83 181.891 292.944 178.683 293.146C167.444 293.85 166.579 317.569 166.579 317.569C171.75 315.845 177.264 314.905 182.849 314.793L185.887 384.245C201.511 383.153 217.897 384.424 234.877 387.534L242.841 324.152L261.389 318.274C261.389 318.274 258.221 303.949 252.458 298.311Z" fill="white"/>
<path d="M1048.57 316.797H1128.32V282.022C1128.32 273.404 1124.12 265.139 1116.64 259.045C1109.16 252.951 1099.02 249.527 1088.44 249.527C1077.87 249.527 1067.73 252.951 1060.25 259.045C1052.77 265.139 1048.57 273.404 1048.57 282.022V316.797Z" fill="#2F2E41"/>
<path d="M1012.97 703.707H995.817L987.656 649.786H1012.97L1012.97 703.707Z" fill="#FFB6B6"/>
<path d="M1017.34 699.143H983.562C977.853 699.144 972.378 700.992 968.341 704.281C964.304 707.571 962.036 712.033 962.035 716.685V717.255H1017.34V699.143Z" fill="#2F2E41"/>
<path d="M1218.02 685.053L1203.08 691.925L1163.44 648.244L1185.49 638.102L1218.02 685.053Z" fill="#FFB6B6"/>
<path d="M1219.07 679.326L1189.66 692.855C1184.68 695.143 1181.03 698.946 1179.5 703.428C1177.97 707.911 1178.69 712.705 1181.49 716.757L1181.84 717.253L1230 695.096L1219.07 679.326Z" fill="#2F2E41"/>
<path d="M1108.39 461.226L1109.71 466.619C1109.71 466.619 1113.68 469.855 1111.7 471.473C1109.71 473.091 1110.37 480.642 1110.37 480.642C1111.48 494.411 1133.56 571.783 1137.51 586.894C1137.51 586.894 1167.95 603.074 1191.78 634.895C1215.61 666.716 1216.26 674.806 1216.26 674.806L1189.8 683.977L1123.62 618.716C1123.62 618.716 1105.09 609.546 1098.47 601.457C1091.85 593.367 1050.81 509.767 1050.81 509.767L1027.64 597.141C1027.64 597.141 1028.96 628.962 1023.01 649.458C1019.34 662.392 1017.13 675.57 1016.39 688.831L985.281 686.134C985.281 686.134 987.267 609.547 990.576 601.456C990.576 601.456 976.677 508.149 1004.47 470.934L1026.88 422.263L1048.82 415.381L1108.39 461.226Z" fill="#2F2E41"/>
<path d="M1088.86 258.029C1047.1 258.61 1047.1 309.23 1088.86 309.806C1130.61 309.224 1130.61 258.604 1088.86 258.029Z" fill="#FFB8B8"/>
<path d="M1056.72 282.574H1063.81L1065.75 278.636L1064.78 282.574H1103.6L1102.34 274.334L1111.77 282.574H1121.19V278.109C1121.19 274.66 1120.36 271.244 1118.74 268.056C1117.12 264.868 1114.75 261.971 1111.76 259.53C1108.77 257.089 1105.22 255.152 1101.31 253.83C1097.4 252.508 1093.21 251.826 1088.98 251.823C1084.74 251.821 1080.55 252.498 1076.64 253.816C1072.73 255.134 1069.17 257.066 1066.18 259.504C1063.18 261.941 1060.81 264.835 1059.18 268.021C1057.56 271.207 1056.72 274.623 1056.72 278.072V278.109L1056.72 282.574Z" fill="#2F2E41"/>
<path d="M1045.79 324.922L1124.7 325.443L1108.03 463.309C1108.03 463.309 1015.75 459.34 1015.69 436.385L1024.34 415.987L1045.79 324.922Z" fill="#3F3D56"/>
<path d="M1128.1 476.637C1126.88 475.426 1126.01 474.014 1125.54 472.498C1125.07 470.983 1125.01 469.403 1125.37 467.867C1125.73 466.332 1126.5 464.88 1127.62 463.613C1128.75 462.347 1130.2 461.296 1131.87 460.535L1128.44 436.265L1146.03 430.968L1150.29 465.3C1151.66 467.678 1151.92 470.383 1151.01 472.904C1150.1 475.425 1148.09 477.588 1145.36 478.984C1142.62 480.38 1139.36 480.912 1136.18 480.479C1133 480.047 1130.12 478.68 1128.1 476.637Z" fill="#FFB6B6"/>
<path d="M1114.33 337.321L1124.71 325.494C1124.71 325.494 1131.82 324.209 1140.21 332.19C1148.61 340.171 1153.5 439.936 1153.5 439.936L1122.72 445.637L1104.53 374.946L1114.33 337.321Z" fill="#3F3D56"/>
<path d="M940.397 445.509L942.685 534.143L1013.1 564.465L1141.32 545.805L1144.47 453.673L1063.18 430.347L940.397 445.509Z" fill="white"/>
<path d="M1012.91 565.422L941.575 534.701L939.251 444.723L1063.29 429.407L1063.56 429.483L1145.62 453.03L1142.42 546.576L1012.91 565.422ZM943.796 533.584L1013.28 563.507L1140.22 545.034L1143.32 454.315L1063.08 431.287L941.541 446.294L943.796 533.584Z" fill="#CACACA"/>
<path d="M1011.52 469.54L1011.25 469.451L939.981 446.36L940.811 444.657L1011.8 467.659L1144.32 452.765L1144.63 454.58L1011.52 469.54Z" fill="#CACACA"/>
<path d="M1012.79 468.589L1010.54 468.611L1011.97 564.476L1014.22 564.454L1012.79 468.589Z" fill="#CACACA"/>
<path d="M1002.52 464.952L976.828 456.465L1100.5 440.406L1126.19 448.892L1002.52 464.952Z" fill="#CACACA"/>
<path d="M940.841 471.22L939.951 472.904L969.747 483.358L970.637 481.675L940.841 471.22Z" fill="#CACACA"/>
<path d="M954.333 501.458L953.444 503.141L983.24 513.595L984.129 511.912L954.333 501.458Z" fill="#2B6CB0"/>
<path d="M548.643 568.647L550.932 657.281L621.343 687.604L749.569 668.944L752.719 576.811L671.431 553.485L548.643 568.647Z" fill="white"/>
<path d="M621.159 688.561L549.822 657.839L547.498 567.862L671.541 552.546L671.805 552.621L753.865 576.168L750.669 669.714L621.159 688.561ZM552.043 656.722L621.526 686.646L748.472 668.172L751.572 577.453L671.323 554.426L549.788 569.432L552.043 656.722Z" fill="#CACACA"/>
<path d="M619.772 592.679L619.496 592.59L548.228 569.498L549.057 567.796L620.052 590.798L752.565 575.904L752.873 577.719L619.772 592.679Z" fill="#CACACA"/>
<path d="M621.036 591.727L618.787 591.75L620.218 687.614L622.467 687.592L621.036 591.727Z" fill="#CACACA"/>
<path d="M604.542 586.004L585.075 579.603L708.75 563.544L728.216 569.945L604.542 586.004Z" fill="#CACACA"/>
<path d="M549.087 594.359L548.198 596.042L577.994 606.496L578.883 604.813L549.087 594.359Z" fill="#CACACA"/>
<path d="M562.58 624.596L561.691 626.279L591.487 636.734L592.376 635.051L562.58 624.596Z" fill="#2B6CB0"/>
<path d="M670.965 580.799L673.624 683.689L755.359 718.889L904.21 697.228L907.864 590.276L813.503 563.2L670.965 580.799Z" fill="#2B6CB0"/>
<path d="M755.145 720L672.334 684.337L669.636 579.888L813.63 562.109L813.937 562.196L909.195 589.53L905.485 698.122L755.145 720ZM674.912 683.041L755.571 717.777L902.934 696.332L906.533 591.022L813.377 564.291L672.294 581.711L674.912 683.041Z" fill="#3F3D56"/>
<path d="M753.534 608.697L753.215 608.593L670.483 581.788L671.447 579.811L753.859 606.512L907.685 589.223L908.042 591.33L753.534 608.697Z" fill="#3F3D56"/>
<path d="M755.002 607.592L752.392 607.618L754.053 718.901L756.664 718.876L755.002 607.592Z" fill="#3F3D56"/>
<path d="M737.179 600.998L713.257 593.519L856.823 574.876L880.746 582.355L737.179 600.998Z" fill="#3F3D56"/>
<path d="M671.481 610.647L670.449 612.601L705.037 624.736L706.07 622.783L671.481 610.647Z" fill="#3F3D56"/>
<path d="M687.144 645.747L686.112 647.701L720.7 659.837L721.732 657.883L687.144 645.747Z" fill="white"/>
<path d="M980.317 460.165C982.053 459.501 983.59 458.535 984.818 457.334C986.046 456.134 986.937 454.729 987.426 453.218C987.916 451.707 987.994 450.127 987.654 448.589C987.313 447.051 986.563 445.593 985.456 444.316L1001.44 423.645L988.392 412.668L966.326 442.117C963.819 443.775 962.146 446.125 961.623 448.721C961.099 451.317 961.763 453.98 963.487 456.204C965.211 458.429 967.877 460.061 970.979 460.791C974.081 461.521 977.403 461.299 980.317 460.166V460.165Z" fill="#FFB6B6"/>
<path d="M1057.92 330.356L1046.47 324.209C1046.47 324.209 1037.64 325.823 1028.24 340.552C1018.84 355.28 980.949 421.13 980.949 421.13L996.525 434.014L1038.08 382.354L1057.92 330.356Z" fill="#3F3D56"/>
</g>
<defs>
<clipPath id="clip0_1_41">
<rect width="1230" height="720" fill="white"/>
</clipPath>
</defs>
</svg>
