<svg width="501" height="451" viewBox="0 0 501 451" fill="none" xmlns="http://www.w3.org/2000/svg">
<g clip-path="url(#clip0_13_231)" filter="url(#filter0_d_13_231)">
<path d="M465.799 0L461.127 3.87547L410.297 46.0597L324.126 117.574L328.185 423.692L0.428223 354.198V151.589L124.069 28.8403L465.799 0Z" fill="#373E46"/>
<path opacity="0.1" d="M465.799 0L461.127 3.87547L410.297 46.0597L324.126 117.574L328.185 423.692L0.428223 354.198V151.589L124.069 28.8403L465.799 0Z" fill="black"/>
<path d="M501 194.478L491.559 402.261L153.261 446.631L0.428223 354.198V154.545L324.126 117.574L501 194.478Z" fill="#373E46"/>
<path d="M500.572 194.478L491.124 402.261L152.833 446.631L0 354.198V154.545L323.698 117.574L500.572 194.478Z" fill="#373E46"/>
<path opacity="0.1" d="M461.127 3.87547L410.297 46.0597L165.285 69.5107L121.493 32.5341L461.127 3.87547Z" fill="black"/>
<path opacity="0.1" d="M324.126 117.574L327.559 425.927L491.559 402.261L501 194.478L324.126 117.574Z" fill="black"/>
<path d="M501 194.478L434.887 189.298L276.078 121.582L324.126 117.574L501 194.478Z" fill="#373E46"/>
<path d="M124.069 28.8403L167.861 65.8114L461.504 37.7142L465.799 0L124.069 28.8403Z" fill="#373E46"/>
<path d="M222.378 143.084C222.387 144.837 222.173 146.585 221.739 148.297C220.937 151.396 219.415 154.323 217.265 156.901C216.538 157.764 215.748 158.586 214.9 159.362C210.466 163.409 204.509 165.97 198.089 166.59C197.04 166.694 195.986 166.746 194.931 166.744C191.489 166.743 188.077 166.183 184.876 165.093C183.96 164.785 183.063 164.434 182.192 164.041C175.978 161.235 171.243 156.492 168.954 150.78C168.62 149.962 168.345 149.127 168.129 148.281C167.957 147.631 167.822 146.971 167.714 146.304C167.545 145.232 167.459 144.15 167.458 143.068C167.454 140.724 167.857 138.394 168.653 136.153C168.807 135.702 168.986 135.256 169.177 134.81C170.938 130.747 173.961 127.178 177.916 124.493C181.872 121.808 186.607 120.111 191.607 119.587C196.606 119.062 201.676 119.731 206.264 121.52C210.852 123.308 214.781 126.148 217.623 129.729C220.741 133.664 222.399 138.32 222.378 143.084Z" fill="#EEEFF0"/>
<path d="M220.237 160.089C240.391 160.089 256.729 140.556 256.729 116.462C256.729 92.3679 240.391 72.8357 220.237 72.8357C200.083 72.8357 183.745 92.3679 183.745 116.462C183.745 140.556 200.083 160.089 220.237 160.089Z" fill="#6C63FF"/>
<path opacity="0.1" d="M220.237 160.089C240.391 160.089 256.729 140.556 256.729 116.462C256.729 92.3679 240.391 72.8357 220.237 72.8357C200.083 72.8357 183.745 92.3679 183.745 116.462C183.745 140.556 200.083 160.089 220.237 160.089Z" fill="black"/>
<path d="M282.463 11.4613C267.839 11.4613 253.522 15.0754 241.211 21.8745C228.901 28.6736 219.115 38.3721 213.014 49.8185C206.913 61.265 204.754 73.9788 206.794 86.4505C208.833 98.9221 214.985 110.628 224.52 120.178C225.996 121.664 227.556 123.09 229.186 124.433C237.863 131.728 248.436 137.133 260.027 140.199C261.945 140.711 263.926 141.163 265.914 141.532C276.079 143.463 286.594 143.594 296.82 141.917C298.852 141.592 300.872 141.19 302.847 140.711C314.863 137.852 325.88 132.495 334.929 125.11C336.697 123.675 338.383 122.169 339.985 120.591C349.649 111.075 355.926 99.3639 358.065 86.8571C360.204 74.3503 358.115 61.5776 352.048 50.0663C345.98 38.5551 336.191 28.7926 323.851 21.9464C311.511 15.1002 297.142 11.46 282.463 11.4613ZM282.463 24.0345C281.444 24.0345 280.448 23.7743 279.601 23.2867C278.754 22.7992 278.093 22.1062 277.703 21.2955C277.314 20.4847 277.211 19.5926 277.41 18.7319C277.609 17.8712 278.1 17.0806 278.82 16.4601C279.541 15.8396 280.459 15.417 281.458 15.2458C282.458 15.0746 283.493 15.1625 284.435 15.4983C285.376 15.8341 286.181 16.4028 286.747 17.1325C287.313 17.8621 287.615 18.72 287.615 19.5975C287.615 20.7743 287.072 21.9029 286.106 22.7349C285.14 23.567 283.83 24.0345 282.463 24.0345Z" fill="#6C63FF"/>
<path d="M351.171 160.094C365.398 160.094 376.931 144.865 376.931 126.079C376.931 107.293 365.398 92.0644 351.171 92.0644C336.944 92.0644 325.411 107.293 325.411 126.079C325.411 144.865 336.944 160.094 351.171 160.094Z" fill="#975656"/>
<path opacity="0.1" d="M351.171 144.218C358.757 144.218 364.907 136.097 364.907 126.079C364.907 116.062 358.757 107.941 351.171 107.941C343.585 107.941 337.435 116.062 337.435 126.079C337.435 136.097 343.585 144.218 351.171 144.218Z" fill="black"/>
<path d="M282.483 324.989C331.8 324.989 371.779 286.918 371.779 239.954C371.779 192.991 331.8 154.92 282.483 154.92C233.165 154.92 193.186 192.991 193.186 239.954C193.186 286.918 233.165 324.989 282.483 324.989Z" fill="#975656"/>
<path opacity="0.1" d="M282.483 324.989C331.8 324.989 371.779 286.918 371.779 239.954C371.779 192.991 331.8 154.92 282.483 154.92C233.165 154.92 193.186 192.991 193.186 239.954C193.186 286.918 233.165 324.989 282.483 324.989Z" fill="black"/>
<path d="M213.794 160.094C228.021 160.094 239.554 144.865 239.554 126.079C239.554 107.293 228.021 92.0644 213.794 92.0644C199.567 92.0644 188.034 107.293 188.034 126.079C188.034 144.865 199.567 160.094 213.794 160.094Z" fill="#975656"/>
<path opacity="0.1" d="M213.794 144.218C221.38 144.218 227.53 136.097 227.53 126.079C227.53 116.062 221.38 107.941 213.794 107.941C206.207 107.941 200.057 116.062 200.057 126.079C200.057 136.097 206.207 144.218 213.794 144.218Z" fill="black"/>
<path opacity="0.1" d="M224.053 119.996L224.948 37.3399L219.393 115.741L224.053 119.996Z" fill="black"/>
<path opacity="0.1" d="M261.868 37.3399L260.788 137.073C258.8 136.704 256.831 136.252 254.901 135.74L261.868 37.3399Z" fill="black"/>
<path opacity="0.1" d="M298.788 37.3399L297.721 136.274C295.746 136.753 293.726 137.155 291.693 137.48L298.788 37.3399Z" fill="black"/>
<path opacity="0.1" d="M334.859 116.154L335.709 37.3399L329.802 120.673L334.859 116.154Z" fill="black"/>
<path opacity="0.1" d="M351.229 75.7918H213.736C209.5 75.7918 206.066 78.7494 206.066 82.3977V112.075C206.066 115.723 209.5 118.681 213.736 118.681H351.229C355.465 118.681 358.899 115.723 358.899 112.075V82.3977C358.899 78.7494 355.465 75.7918 351.229 75.7918Z" fill="black"/>
<path d="M352.891 137.909C352.871 153.252 346.089 168.016 333.916 179.218C321.743 190.42 305.086 197.225 287.312 198.258C269.537 199.29 251.97 194.474 238.16 184.782C224.351 175.09 215.327 161.244 212.914 146.043C210.501 130.842 214.878 115.419 225.161 102.89C235.443 90.3611 250.864 81.6607 268.308 78.5469C285.752 75.4331 303.919 78.1379 319.136 86.115C334.354 94.092 345.488 106.746 350.289 121.521C352.021 126.856 352.897 132.37 352.891 137.909Z" fill="#975656"/>
<path opacity="0.1" d="M350.289 121.521C349.731 121.601 349.167 121.641 348.602 121.642H216.376C215.809 121.641 215.242 121.601 214.682 121.521C218.121 110.997 224.796 101.467 234.002 93.9392C243.209 86.4113 254.606 81.1647 266.988 78.7535H297.983C310.366 81.1647 321.762 86.4113 330.969 93.9392C340.176 101.467 346.851 110.997 350.289 121.521Z" fill="black"/>
<path d="M348.595 77.2726H216.37C210.679 77.2726 206.066 81.2456 206.066 86.1466V111.288C206.066 116.189 210.679 120.162 216.37 120.162H348.595C354.286 120.162 358.899 116.189 358.899 111.288V86.1466C358.899 81.2456 354.286 77.2726 348.595 77.2726Z" fill="#EEEFF0"/>
<path opacity="0.1" d="M222.954 115.725L224.948 87.6274L224.648 115.725H222.954Z" fill="black"/>
<path opacity="0.1" d="M261.568 115.725L261.868 87.6274L259.874 115.725H261.568Z" fill="black"/>
<path opacity="0.1" d="M298.788 87.6274L298.482 115.725H296.794L298.788 87.6274Z" fill="black"/>
<path opacity="0.1" d="M333.715 115.725L335.709 87.6274L335.408 115.725H333.715Z" fill="black"/>
<path opacity="0.1" d="M255.866 138.653C261.084 138.653 265.314 135.01 265.314 130.516C265.314 126.023 261.084 122.38 255.866 122.38C250.648 122.38 246.419 126.023 246.419 130.516C246.419 135.01 250.648 138.653 255.866 138.653Z" fill="black"/>
<path d="M255.866 137.909C261.084 137.909 265.314 134.267 265.314 129.773C265.314 125.28 261.084 121.637 255.866 121.637C250.648 121.637 246.419 125.28 246.419 129.773C246.419 134.267 250.648 137.909 255.866 137.909Z" fill="#EEEFF0"/>
<path d="M255.866 133.472C258.239 133.472 260.162 131.816 260.162 129.773C260.162 127.73 258.239 126.074 255.866 126.074C253.494 126.074 251.571 127.73 251.571 129.773C251.571 131.816 253.494 133.472 255.866 133.472Z" fill="#373E46"/>
<path d="M256.723 129.035C257.196 129.035 257.579 128.705 257.579 128.298C257.579 127.89 257.196 127.56 256.723 127.56C256.25 127.56 255.866 127.89 255.866 128.298C255.866 128.705 256.25 129.035 256.723 129.035Z" fill="white"/>
<path opacity="0.1" d="M312.538 138.653C317.755 138.653 321.985 135.01 321.985 130.516C321.985 126.023 317.755 122.38 312.538 122.38C307.32 122.38 303.09 126.023 303.09 130.516C303.09 135.01 307.32 138.653 312.538 138.653Z" fill="black"/>
<path d="M312.538 137.909C317.755 137.909 321.985 134.267 321.985 129.773C321.985 125.28 317.755 121.637 312.538 121.637C307.32 121.637 303.09 125.28 303.09 129.773C303.09 134.267 307.32 137.909 312.538 137.909Z" fill="#EEEFF0"/>
<path d="M312.538 133.472C314.91 133.472 316.833 131.816 316.833 129.773C316.833 127.73 314.91 126.074 312.538 126.074C310.165 126.074 308.242 127.73 308.242 129.773C308.242 131.816 310.165 133.472 312.538 133.472Z" fill="#373E46"/>
<path d="M310.818 129.035C311.291 129.035 311.675 128.705 311.675 128.298C311.675 127.89 311.291 127.56 310.818 127.56C310.345 127.56 309.962 127.89 309.962 128.298C309.962 128.705 310.345 129.035 310.818 129.035Z" fill="white"/>
<path opacity="0.1" d="M284.202 179.317C299.851 179.317 312.538 168.392 312.538 154.914C312.538 141.437 299.851 130.511 284.202 130.511C268.553 130.511 255.866 141.437 255.866 154.914C255.866 168.392 268.553 179.317 284.202 179.317Z" fill="black"/>
<path d="M284.202 177.842C299.851 177.842 312.538 166.916 312.538 153.439C312.538 139.961 299.851 129.035 284.202 129.035C268.553 129.035 255.866 139.961 255.866 153.439C255.866 166.916 268.553 177.842 284.202 177.842Z" fill="#6C63FF"/>
<path d="M501 196L497.088 250.598L495.507 272.66L489.822 351.911L151 386V223.382L501 196Z" fill="#373E46"/>
<path d="M0.428223 154.545L65.6204 147.097L203.062 210.745L153.261 232.187L0.428223 154.545Z" fill="#373E46"/>
<path opacity="0.05" d="M0.428223 154.545L65.6204 147.097L203.062 210.745L153.261 232.187L0.428223 154.545Z" fill="black"/>
<path opacity="0.1" d="M154.508 173.179L145.853 169.188C145.499 169.028 145.095 168.967 144.698 169.015C144.301 169.062 143.932 169.215 143.641 169.453L136.565 175.304C136.273 175.537 135.904 175.685 135.51 175.729C135.116 175.773 134.715 175.71 134.364 175.549C134.013 175.388 133.729 175.137 133.551 174.831C133.372 174.525 133.309 174.179 133.369 173.84L135.102 165.522C135.169 165.183 135.112 164.834 134.938 164.524C134.763 164.214 134.481 163.959 134.13 163.794L125.475 159.803C125.133 159.633 124.859 159.376 124.692 159.068C124.525 158.759 124.473 158.413 124.543 158.078C124.613 157.743 124.802 157.435 125.083 157.196C125.364 156.956 125.725 156.798 126.115 156.742L135.837 155.591C136.233 155.542 136.602 155.387 136.891 155.148C137.179 154.909 137.374 154.598 137.448 154.259L139.173 145.941C139.254 145.607 139.453 145.303 139.742 145.071C140.031 144.838 140.397 144.688 140.79 144.642C141.182 144.595 141.581 144.654 141.933 144.811C142.284 144.968 142.571 145.215 142.753 145.517L147.029 153.125C147.207 153.434 147.492 153.686 147.845 153.848C148.199 154.01 148.601 154.073 148.998 154.028L158.714 152.877C159.107 152.84 159.503 152.909 159.849 153.074C160.195 153.238 160.474 153.491 160.646 153.797C160.819 154.103 160.878 154.448 160.815 154.784C160.751 155.12 160.569 155.43 160.293 155.674L153.21 161.526C152.924 161.767 152.732 162.079 152.662 162.418C152.592 162.758 152.648 163.108 152.82 163.419L157.097 171.027C157.255 171.336 157.299 171.68 157.223 172.011C157.147 172.342 156.955 172.646 156.673 172.88C156.391 173.115 156.032 173.269 155.645 173.323C155.258 173.376 154.861 173.326 154.508 173.179Z" fill="black"/>
<path d="M153.223 171.638L145.553 168.104C145.239 167.959 144.88 167.904 144.528 167.946C144.176 167.987 143.847 168.123 143.59 168.335L137.313 173.526C137.057 173.738 136.73 173.874 136.379 173.916C136.027 173.958 135.669 173.902 135.356 173.758C135.043 173.614 134.791 173.388 134.637 173.113C134.482 172.838 134.432 172.528 134.495 172.227L136.029 164.851C136.092 164.549 136.043 164.237 135.888 163.961C135.733 163.685 135.48 163.459 135.166 163.315L127.495 159.78C127.181 159.637 126.927 159.411 126.771 159.135C126.615 158.86 126.565 158.549 126.628 158.247C126.69 157.945 126.862 157.668 127.119 157.456C127.376 157.244 127.705 157.108 128.058 157.067L136.681 156.043C137.032 156.001 137.359 155.865 137.615 155.653C137.871 155.441 138.043 155.165 138.106 154.865L139.64 147.482C139.695 147.173 139.864 146.888 140.123 146.668C140.382 146.449 140.716 146.308 141.075 146.266C141.435 146.224 141.801 146.283 142.118 146.435C142.436 146.587 142.688 146.823 142.836 147.108L146.633 153.852C146.787 154.128 147.039 154.355 147.353 154.499C147.667 154.644 148.026 154.698 148.378 154.655L156.994 153.637C157.346 153.594 157.705 153.649 158.019 153.792C158.332 153.936 158.585 154.162 158.741 154.437C158.896 154.712 158.946 155.023 158.884 155.324C158.822 155.625 158.65 155.902 158.394 156.114L152.066 161.294C151.814 161.503 151.644 161.775 151.581 162.071C151.518 162.368 151.565 162.674 151.715 162.946L155.511 169.695C155.678 169.97 155.737 170.283 155.681 170.589C155.625 170.895 155.457 171.177 155.201 171.394C154.945 171.612 154.614 171.753 154.258 171.797C153.903 171.841 153.54 171.785 153.223 171.638Z" fill="#EEEFF0"/>
<path opacity="0.1" d="M473.022 385.389L467.678 382.923C467.46 382.821 467.21 382.781 466.964 382.81C466.718 382.839 466.489 382.934 466.311 383.082L461.932 386.705C461.754 386.853 461.525 386.948 461.28 386.977C461.034 387.007 460.784 386.968 460.566 386.867C460.348 386.766 460.173 386.608 460.065 386.415C459.958 386.223 459.925 386.006 459.97 385.796L461.037 380.655C461.081 380.445 461.047 380.228 460.939 380.036C460.831 379.844 460.655 379.687 460.436 379.587L455.086 377.12C454.869 377.019 454.694 376.861 454.586 376.669C454.479 376.476 454.445 376.26 454.489 376.05C454.533 375.84 454.652 375.648 454.831 375.5C455.009 375.352 455.237 375.256 455.483 375.227L461.491 374.517C461.737 374.487 461.965 374.391 462.144 374.242C462.323 374.094 462.444 373.901 462.488 373.691L463.556 368.549C463.6 368.34 463.721 368.148 463.899 368.001C464.078 367.854 464.306 367.759 464.551 367.73C464.796 367.7 465.045 367.738 465.263 367.838C465.482 367.938 465.658 368.094 465.767 368.285L468.407 372.992C468.518 373.182 468.696 373.337 468.915 373.436C469.134 373.535 469.383 373.572 469.628 373.542L475.637 372.832C475.882 372.802 476.133 372.839 476.353 372.939C476.572 373.04 476.749 373.198 476.857 373.39C476.965 373.583 476.999 373.8 476.955 374.01C476.91 374.221 476.788 374.414 476.608 374.561L472.236 378.188C472.057 378.337 471.936 378.53 471.891 378.74C471.847 378.95 471.88 379.168 471.987 379.361L474.633 384.062C474.737 384.254 474.769 384.469 474.724 384.678C474.679 384.886 474.559 385.077 474.381 385.224C474.203 385.37 473.976 385.465 473.732 385.494C473.489 385.524 473.24 385.487 473.022 385.389Z" fill="black"/>
<path d="M472.236 384.437L467.487 382.235C467.294 382.145 467.073 382.111 466.856 382.137C466.639 382.162 466.437 382.247 466.279 382.378L462.399 385.587C462.24 385.717 462.038 385.801 461.82 385.826C461.603 385.852 461.382 385.818 461.189 385.729C460.995 385.64 460.84 385.5 460.744 385.331C460.648 385.161 460.616 384.969 460.654 384.783L461.6 380.22C461.639 380.034 461.609 379.842 461.514 379.672C461.418 379.502 461.263 379.362 461.069 379.273L456.326 377.087C456.145 376.993 456.001 376.854 455.914 376.688C455.827 376.522 455.801 376.336 455.839 376.157C455.877 375.978 455.978 375.813 456.128 375.684C456.278 375.555 456.47 375.469 456.678 375.436L462.002 374.803C462.22 374.779 462.423 374.695 462.582 374.564C462.741 374.434 462.847 374.263 462.884 374.076L463.837 369.513C463.876 369.327 463.983 369.156 464.142 369.025C464.3 368.894 464.503 368.81 464.721 368.784C464.938 368.759 465.16 368.793 465.354 368.882C465.547 368.972 465.703 369.111 465.799 369.281L468.139 373.454C468.235 373.624 468.391 373.764 468.585 373.853C468.78 373.942 469.001 373.976 469.219 373.95L474.55 373.317C474.768 373.291 474.989 373.325 475.183 373.415C475.377 373.504 475.533 373.644 475.629 373.815C475.724 373.985 475.755 374.177 475.716 374.364C475.678 374.55 475.571 374.721 475.413 374.852L471.533 378.062C471.374 378.192 471.267 378.363 471.228 378.549C471.189 378.735 471.22 378.927 471.316 379.097L473.661 383.269C473.755 383.439 473.783 383.63 473.743 383.814C473.703 383.999 473.597 384.168 473.439 384.297C473.281 384.426 473.08 384.509 472.864 384.534C472.648 384.559 472.428 384.525 472.236 384.437Z" fill="#6C63FF"/>
<path opacity="0.1" d="M193.972 275.208L188.629 272.742C188.409 272.642 188.159 272.605 187.914 272.634C187.668 272.664 187.44 272.759 187.261 272.907L182.882 276.523C182.704 276.672 182.475 276.767 182.23 276.796C181.984 276.826 181.734 276.787 181.516 276.686C181.298 276.585 181.123 276.427 181.015 276.234C180.908 276.042 180.875 275.825 180.92 275.615L181.987 270.474C182.03 270.264 181.995 270.048 181.887 269.856C181.78 269.664 181.604 269.507 181.386 269.406L176.036 266.939C175.817 266.839 175.641 266.682 175.533 266.49C175.425 266.297 175.39 266.081 175.434 265.871C175.479 265.661 175.599 265.468 175.778 265.321C175.958 265.174 176.187 265.079 176.433 265.051L182.441 264.336C182.686 264.307 182.915 264.212 183.094 264.064C183.273 263.917 183.393 263.725 183.438 263.515L184.506 258.368C184.551 258.159 184.672 257.968 184.851 257.821C185.03 257.675 185.258 257.581 185.503 257.552C185.748 257.523 185.997 257.562 186.215 257.662C186.433 257.762 186.609 257.919 186.717 258.109L189.364 262.811C189.472 263.001 189.648 263.158 189.867 263.257C190.085 263.356 190.334 263.392 190.578 263.361L196.587 262.646C196.832 262.617 197.082 262.656 197.301 262.758C197.519 262.859 197.694 263.017 197.802 263.209C197.91 263.402 197.944 263.618 197.901 263.828C197.857 264.039 197.737 264.232 197.558 264.38L193.186 267.996C193.005 268.149 192.886 268.348 192.848 268.563C192.81 268.779 192.855 268.999 192.975 269.191L195.615 273.892C195.722 274.087 195.755 274.306 195.708 274.517C195.661 274.729 195.537 274.922 195.354 275.069C195.171 275.215 194.938 275.308 194.689 275.333C194.441 275.358 194.19 275.314 193.972 275.208Z" fill="black"/>
<path d="M193.186 274.261L188.443 272.059C188.249 271.971 188.027 271.937 187.809 271.963C187.592 271.989 187.389 272.072 187.229 272.202L183.349 275.411C183.19 275.542 182.988 275.625 182.77 275.651C182.553 275.676 182.332 275.642 182.139 275.553C181.945 275.464 181.79 275.325 181.694 275.155C181.598 274.985 181.566 274.794 181.604 274.608L182.55 270.05C182.59 269.864 182.561 269.672 182.465 269.501C182.37 269.331 182.213 269.191 182.019 269.103L177.276 266.901C177.092 266.809 176.945 266.67 176.855 266.503C176.766 266.336 176.739 266.149 176.777 265.969C176.816 265.788 176.918 265.622 177.07 265.493C177.223 265.364 177.417 265.279 177.628 265.249L182.952 264.616C183.171 264.591 183.374 264.506 183.533 264.375C183.691 264.243 183.797 264.071 183.835 263.884L184.787 259.326C184.826 259.14 184.933 258.969 185.092 258.838C185.25 258.708 185.453 258.623 185.671 258.598C185.888 258.572 186.11 258.606 186.304 258.696C186.497 258.785 186.653 258.925 186.749 259.095L189.089 263.262C189.184 263.433 189.341 263.573 189.535 263.662C189.729 263.751 189.951 263.784 190.169 263.757L195.532 263.135C195.75 263.108 195.972 263.14 196.167 263.229C196.362 263.318 196.519 263.457 196.615 263.628C196.711 263.799 196.742 263.991 196.702 264.178C196.663 264.365 196.555 264.536 196.395 264.666L192.515 267.875C192.355 268.006 192.248 268.178 192.209 268.365C192.17 268.552 192.201 268.745 192.298 268.916L194.643 273.083C194.745 273.256 194.778 273.452 194.739 273.643C194.7 273.834 194.59 274.009 194.426 274.141C194.262 274.274 194.053 274.357 193.829 274.379C193.606 274.4 193.38 274.359 193.186 274.261Z" fill="#6C63FF"/>
<path opacity="0.1" d="M473.022 341.762L467.678 339.296C467.46 339.194 467.21 339.155 466.964 339.184C466.718 339.212 466.489 339.308 466.311 339.456L461.932 343.073C461.754 343.22 461.526 343.315 461.282 343.344C461.037 343.373 460.788 343.335 460.57 343.235C460.352 343.135 460.177 342.978 460.069 342.786C459.961 342.595 459.926 342.379 459.97 342.17L461.037 337.028C461.088 336.813 461.057 336.59 460.949 336.392C460.84 336.194 460.661 336.031 460.436 335.927L455.086 333.466C454.869 333.365 454.694 333.207 454.586 333.015C454.479 332.822 454.445 332.606 454.489 332.396C454.533 332.186 454.652 331.994 454.831 331.846C455.009 331.698 455.237 331.602 455.483 331.573L461.491 330.857C461.737 330.829 461.966 330.734 462.145 330.587C462.324 330.44 462.444 330.247 462.488 330.037L463.556 324.895C463.6 324.686 463.721 324.494 463.899 324.347C464.078 324.2 464.306 324.105 464.551 324.075C464.796 324.046 465.045 324.084 465.263 324.184C465.482 324.284 465.658 324.44 465.767 324.631L468.407 329.332C468.518 329.523 468.695 329.679 468.914 329.778C469.133 329.876 469.383 329.913 469.628 329.883L475.637 329.173C475.882 329.142 476.133 329.18 476.353 329.28C476.572 329.38 476.749 329.538 476.857 329.731C476.965 329.923 476.999 330.14 476.955 330.351C476.91 330.561 476.788 330.754 476.608 330.901L472.236 334.518C472.057 334.666 471.936 334.859 471.891 335.069C471.847 335.28 471.88 335.497 471.987 335.69L474.633 340.392C474.757 340.585 474.805 340.808 474.768 341.026C474.731 341.245 474.613 341.447 474.431 341.602C474.248 341.758 474.012 341.857 473.758 341.886C473.503 341.915 473.245 341.872 473.022 341.762Z" fill="black"/>
<path d="M472.236 340.81L467.487 338.608C467.294 338.518 467.073 338.483 466.855 338.509C466.638 338.535 466.436 338.619 466.279 338.751L462.399 341.961C462.24 342.091 462.038 342.174 461.82 342.2C461.603 342.225 461.382 342.191 461.189 342.102C460.995 342.013 460.84 341.874 460.744 341.704C460.648 341.534 460.616 341.343 460.654 341.157L461.6 336.593C461.639 336.407 461.609 336.215 461.514 336.045C461.418 335.875 461.263 335.735 461.069 335.646L456.326 333.444C456.145 333.35 456.001 333.211 455.914 333.045C455.827 332.878 455.801 332.693 455.839 332.514C455.877 332.335 455.978 332.17 456.128 332.041C456.278 331.912 456.47 331.825 456.678 331.793L462.002 331.16C462.22 331.136 462.423 331.052 462.582 330.921C462.741 330.791 462.847 330.62 462.884 330.433L463.837 325.87C463.876 325.683 463.983 325.513 464.142 325.382C464.3 325.251 464.503 325.167 464.721 325.141C464.938 325.116 465.16 325.15 465.354 325.239C465.547 325.328 465.703 325.468 465.799 325.638L468.139 329.806C468.235 329.976 468.391 330.117 468.585 330.206C468.779 330.296 469.001 330.331 469.219 330.307L474.55 329.674C474.768 329.648 474.989 329.682 475.183 329.772C475.377 329.861 475.533 330.001 475.629 330.172C475.724 330.342 475.755 330.534 475.716 330.721C475.678 330.907 475.571 331.078 475.413 331.209L471.533 334.419C471.373 334.549 471.266 334.719 471.227 334.905C471.188 335.092 471.219 335.284 471.316 335.454L473.661 339.621C473.759 339.791 473.792 339.984 473.754 340.171C473.717 340.359 473.611 340.531 473.452 340.663C473.294 340.796 473.091 340.881 472.872 340.907C472.653 340.934 472.431 340.9 472.236 340.81Z" fill="#6C63FF"/>
<path d="M237.406 256.959C247.128 256.959 255.009 245.868 255.009 232.187C255.009 218.505 247.128 207.415 237.406 207.415C227.684 207.415 219.802 218.505 219.802 232.187C219.802 245.868 227.684 256.959 237.406 256.959Z" fill="#975656"/>
<path d="M334.43 248.085C344.152 248.085 352.034 236.994 352.034 223.313C352.034 209.632 344.152 198.541 334.43 198.541C324.708 198.541 316.827 209.632 316.827 223.313C316.827 236.994 324.708 248.085 334.43 248.085Z" fill="#975656"/>
<path d="M496.666 267.831L495.087 297.024L151.114 327.483L0.428223 268.371V239.954L151.114 296.6L496.666 267.831Z" fill="#6C63FF"/>
<path opacity="0.1" d="M151.114 296.6V327.483L0.428223 268.371V239.954L151.114 296.6Z" fill="black"/>
</g>
<defs>
<filter id="filter0_d_13_231" x="0" y="0" width="501" height="451" filterUnits="userSpaceOnUse" color-interpolation-filters="sRGB">
<feFlood flood-opacity="0" result="BackgroundImageFix"/>
<feColorMatrix in="SourceAlpha" type="matrix" values="0 0 0 0 0 0 0 0 0 0 0 0 0 0 0 0 0 0 127 0" result="hardAlpha"/>
<feOffset dy="4"/>
<feComposite in2="hardAlpha" operator="out"/>
<feColorMatrix type="matrix" values="0 0 0 0 0 0 0 0 0 0 0 0 0 0 0 0 0 0 0.25 0"/>
<feBlend mode="normal" in2="BackgroundImageFix" result="effect1_dropShadow_13_231"/>
<feBlend mode="normal" in="SourceGraphic" in2="effect1_dropShadow_13_231" result="shape"/>
</filter>
<clipPath id="clip0_13_231">
<rect width="501" height="447" fill="white"/>
</clipPath>
</defs>
</svg>
